<?xml version="1.0" encoding="UTF-8" standalone="no"?>
<!DOCTYPE svg PUBLIC "-//W3C//DTD SVG 1.0//EN" "http://www.w3.org/TR/2001/PR-SVG-20010719/DTD/svg10.dtd">
<svg width="16cm" height="23cm" viewBox="17 6 312 445" xmlns="http://www.w3.org/2000/svg" xmlns:xlink="http://www.w3.org/1999/xlink">
  <defs/>
  <g id="Background">
    <rect style="fill: #ffffff; fill-opacity: 1; stroke-opacity: 1; stroke-width: 0.4; stroke-linejoin: round; stroke: #000000" x="17.7552" y="393.9" width="211.25" height="56.5" rx="4" ry="4"/>
    <rect style="fill: #e5e5e5; fill-opacity: 1; stroke-opacity: 1; stroke-width: 0.2; stroke-linejoin: round; stroke: #000000" x="158.34" y="56.503" width="158" height="29" rx="2" ry="2"/>
    <ellipse style="fill: #ffffff; fill-opacity: 1; stroke-opacity: 1; stroke-width: 0.2; stroke-linejoin: round; stroke: #000000" cx="240.289" cy="67.5988" rx="16.0455" ry="7.7618"/>
    <text font-size="6.77333" style="fill: #000000; fill-opacity: 1; stroke: none;text-anchor:start;font-family:sans-serif;font-style:normal;font-weight:normal" x="280.84" y="72.7646">
      <tspan x="280.84" y="72.7646">cpost</tspan>
    </text>
    <text font-size="12.8" style="fill: #000000; fill-opacity: 1; stroke: none;text-anchor:start;font-family:sans-serif;font-style:normal;font-weight:normal" x="178.578" y="77.9894">
      <tspan x="178.578" y="77.9894"></tspan>
    </text>
    <text font-size="6.77333" style="fill: #000000; fill-opacity: 1; stroke: none;text-anchor:start;font-family:sans-serif;font-style:normal;font-weight:normal" x="225.154" y="70.542">
      <tspan x="225.154" y="70.542">my_feed</tspan>
    </text>
    <polygon style="fill: #ffffff; fill-opacity: 1; stroke-opacity: 1; stroke-width: 0.2; stroke: #000000" fill-rule="evenodd" points="310.546,124.669 220.048,124.657 268.048,152.157 "/>
    <text font-size="6.77333" style="fill: #000000; fill-opacity: 1; stroke: none;text-anchor:start;font-family:sans-serif;font-style:normal;font-weight:normal" x="235.188" y="130.896">
      <tspan x="235.188" y="130.896">xs_tsource_xpublic</tspan>
    </text>
    <text font-size="12.8" style="fill: #000000; fill-opacity: 1; stroke: none;text-anchor:start;font-family:sans-serif;font-style:normal;font-weight:normal" x="31.9394" y="186.962">
      <tspan x="31.9394" y="186.962"></tspan>
    </text>
    <text font-size="12.8" style="fill: #000000; fill-opacity: 1; stroke: none;text-anchor:start;font-family:sans-serif;font-style:normal;font-weight:normal" x="246.51" y="94.0836">
      <tspan x="246.51" y="94.0836"></tspan>
    </text>
    <text font-size="12.8" style="fill: #000000; fill-opacity: 1; stroke: none;text-anchor:start;font-family:sans-serif;font-style:normal;font-weight:normal" x="207.546" y="9.88798">
      <tspan x="207.546" y="9.88798"></tspan>
    </text>
    <text font-size="12.8" style="fill: #000000; fill-opacity: 1; stroke: none;text-anchor:start;font-family:sans-serif;font-style:normal;font-weight:normal" x="156.796" y="14.263">
      <tspan x="156.796" y="14.263"></tspan>
    </text>
    <polygon style="fill: #ffffff; fill-opacity: 1; stroke-opacity: 1; stroke-width: 0.2; stroke: #000000" fill-rule="evenodd" points="80.0056,408.5 24.5418,408.308 56.967,429.04 "/>
    <text font-size="6.77333" style="fill: #000000; fill-opacity: 1; stroke: none;text-anchor:start;font-family:sans-serif;font-style:normal;font-weight:normal" x="38.432" y="416.808">
      <tspan x="38.432" y="416.808">exchange</tspan>
    </text>
    <rect style="fill: #e5e5e5; fill-opacity: 1; stroke-opacity: 1; stroke-width: 0.2; stroke-linejoin: round; stroke: #000000" x="90.2652" y="409.15" width="106.237" height="18.5" rx="2" ry="2"/>
    <ellipse style="fill: #ffffff; fill-opacity: 1; stroke-opacity: 1; stroke-width: 0.2; stroke-linejoin: round; stroke: #000000" cx="121.945" cy="419.066" rx="20.5" ry="4.9159"/>
    <text font-size="6.77333" style="fill: #000000; fill-opacity: 1; stroke: none;text-anchor:start;font-family:sans-serif;font-style:normal;font-weight:normal" x="107.45" y="422.542">
      <tspan x="107.45" y="422.542">config</tspan>
    </text>
    <text font-size="6.77333" style="fill: #000000; fill-opacity: 1; stroke: none;text-anchor:start;font-family:sans-serif;font-style:normal;font-weight:normal" x="150.29" y="420.354">
      <tspan x="150.29" y="420.354">Component</tspan>
    </text>
    <text font-size="6.77333" style="fill: #000000; fill-opacity: 1; stroke: none;text-anchor:start;font-family:sans-serif;font-style:normal;font-weight:normal" x="120.988" y="402.406">
      <tspan x="120.988" y="402.406">Legend</tspan>
    </text>
    <g>
      <line style="fill: none; stroke-opacity: 1; stroke-width: 2; stroke-linejoin: round; stroke: #0000ff" x1="88.958" y1="430.908" x2="90.0781" y2="440.173"/>
      <polygon style="fill: #0000ff; fill-opacity: 1; stroke-opacity: 1; stroke-width: 2; stroke: #0000ff" fill-rule="evenodd" points="90.6182,444.64 86.9197,439.044 90.0781,440.173 92.8764,438.323 "/>
    </g>
    <text font-size="6.77333" style="fill: #000000; fill-opacity: 1; stroke: none;text-anchor:start;font-family:sans-serif;font-style:normal;font-weight:normal" x="97.692" y="443.1">
      <tspan x="97.692" y="443.1">http data flow</tspan>
    </text>
    <text font-size="6.77333" style="fill: #000000; fill-opacity: 1; stroke: none;text-anchor:start;font-family:sans-serif;font-style:normal;font-weight:normal" x="35.5786" y="441.592">
      <tspan x="35.5786" y="441.592">sftp data flow</tspan>
    </text>
    <text font-size="6.77333" style="fill: #000000; fill-opacity: 1; stroke: none;text-anchor:start;font-family:sans-serif;font-style:normal;font-weight:normal" x="159.114" y="440.536">
      <tspan x="159.114" y="440.536">amqp posting flow</tspan>
    </text>
    <text font-size="12.8" style="fill: #000000; fill-opacity: 1; stroke: none;text-anchor:start;font-family:sans-serif;font-style:normal;font-weight:normal" x="7.8934" y="291.89">
      <tspan x="7.8934" y="291.89"></tspan>
    </text>
    <text font-size="12.8" style="fill: #000000; fill-opacity: 1; stroke: none;text-anchor:start;font-family:sans-serif;font-style:normal;font-weight:normal" x="237.34" y="71.003">
      <tspan x="237.34" y="71.003"></tspan>
    </text>
    <text font-size="12.8" style="fill: #000000; fill-opacity: 1; stroke: none;text-anchor:start;font-family:sans-serif;font-style:normal;font-weight:normal" x="247.394" y="38.7642">
      <tspan x="247.394" y="38.7642"></tspan>
    </text>
    <text font-size="12.8" style="fill: #000000; fill-opacity: 1; stroke: none;text-anchor:start;font-family:sans-serif;font-style:normal;font-weight:normal" x="69.3934" y="383.014">
      <tspan x="69.3934" y="383.014"></tspan>
    </text>
    <text font-size="12.8" style="fill: #000000; fill-opacity: 1; stroke: none;text-anchor:start;font-family:sans-serif;font-style:normal;font-weight:normal" x="29.8934" y="380.514">
      <tspan x="29.8934" y="380.514"></tspan>
    </text>
    <g>
      <line style="fill: none; stroke-opacity: 1; stroke-width: 2; stroke: #00ff00" x1="152.208" y1="432.17" x2="153.328" y2="441.435"/>
      <polygon style="fill: #00ff00; fill-opacity: 1; stroke-opacity: 1; stroke-width: 2; stroke: #00ff00" fill-rule="evenodd" points="153.868,445.902 150.169,440.305 153.328,441.435 156.126,439.585 "/>
    </g>
    <text font-size="12.8" style="fill: #000000; fill-opacity: 1; stroke: none;text-anchor:start;font-family:sans-serif;font-style:normal;font-weight:normal" x="205.336" y="85.3606">
      <tspan x="205.336" y="85.3606"></tspan>
    </text>
    <text font-size="12.8" style="fill: #000000; fill-opacity: 1; stroke: none;text-anchor:start;font-family:sans-serif;font-style:normal;font-weight:normal" x="9.6396" y="372.966">
      <tspan x="9.6396" y="372.966"></tspan>
    </text>
    <g>
      <line style="fill: none; stroke-opacity: 1; stroke-width: 2; stroke: #000000" x1="30.7556" y1="423" x2="29.952" y2="435.663"/>
      <polygon style="fill: #000000; fill-opacity: 1; stroke-opacity: 1; stroke-width: 2; stroke: #000000" fill-rule="evenodd" points="29.667,440.154 27.053,433.976 29.952,435.663 33.041,434.356 "/>
    </g>
    <text font-size="12.8" style="fill: #000000; fill-opacity: 1; stroke: none;text-anchor:start;font-family:sans-serif;font-style:normal;font-weight:normal" x="45.0056" y="23.25">
      <tspan x="45.0056" y="23.25">103 Tests</tspan>
    </text>
    <text font-size="12.8" style="fill: #000000; fill-opacity: 1; stroke: none;text-anchor:start;font-family:sans-serif;font-style:normal;font-weight:normal" x="130.756" y="16.75">
      <tspan x="130.756" y="16.75"></tspan>
    </text>
    <text font-size="12.8" style="fill: #000000; fill-opacity: 1; stroke: none;text-anchor:start;font-family:sans-serif;font-style:normal;font-weight:normal" x="52.6392" y="32.3236">
      <tspan x="52.6392" y="32.3236"></tspan>
    </text>
    <text font-size="12.8" style="fill: #000000; fill-opacity: 1; stroke: none;text-anchor:start;font-family:sans-serif;font-style:normal;font-weight:normal" x="240.752" y="70.0106">
      <tspan x="240.752" y="70.0106"></tspan>
    </text>
    <g>
      <path style="fill: #a5a585; fill-opacity: 1; stroke: none" fill-rule="evenodd" d="M 90.5219 83.4797 L 90.5073,83.2927 L 90.4664,83.1087 L 90.3963,82.9247 L 90.2999,82.7436 L 90.1801,82.5625 L 90.0311,82.3843 L 89.8559,82.2091 L 89.6543,82.0367 L 89.4265,81.8673 L 89.1753,81.7067 L 88.9007,81.546 L 88.6057,81.3883 L 88.2815,81.2393 L 87.9397,81.0962 L 87.5775,80.9589 L 87.1919,80.8274 L 86.7918,80.7048 L 86.3711,80.5879 L 85.9359,80.4798 L 85.4802,80.3776 L 85.0158,80.2812 L 84.5339,80.1965 L 84.0402,80.1147 L 83.5407,80.0475 L 83.0266,79.9891 L 82.5038,79.9395 L 81.978,79.8956 L 81.4435,79.8664 L 80.906,79.8402 L 80.3656,79.8226 L 79.8252,79.8226 L 79.8252,79.8226 L 79.2819,79.8226 L 78.7415,79.8402 L 78.2041,79.8664 L 77.6695,79.8956 L 77.1438,79.9395 L 76.6209,79.9891 L 76.1097,80.0475 L 75.6073,80.1147 L 75.1137,80.1965 L 74.6317,80.2812 L 74.1673,80.3776 L 73.7145,80.4798 L 73.2793,80.5879 L 72.8587,80.7048 L 72.4556,80.8274 L 72.07,80.9589 L 71.7107,81.0962 L 71.3661,81.2393 L 71.0448,81.3883 L 70.7468,81.546 L 70.4723,81.7067 L 70.221,81.8673 L 69.9932,82.0367 L 69.7917,82.2091 L 69.6164,82.3843 L 69.4674,82.5625 L 69.3477,82.7436 L 69.2513,82.9247 L 69.1812,83.1087 L 69.1432,83.2927 L 69.1286,83.4797 L 69.1286,83.4797 L 69.1432,83.6666 L 69.1812,83.8477 L 69.2513,84.0347 L 69.3477,84.2158 L 69.4674,84.3969 L 69.6164,84.5751 L 69.7917,84.7503 L 69.9932,84.9227 L 70.221,85.0892 L 70.4723,85.2527 L 70.7468,85.4134 L 71.0448,85.5711 L 71.3661,85.7201 L 71.7107,85.8632 L 72.07,86.0005 L 72.4556,86.1319 L 72.8587,86.2546 L 73.2793,86.3715 L 73.7145,86.4795 L 74.1673,86.5818 L 74.6317,86.6782 L 75.1137,86.7629 L 75.6073,86.8417 L 76.1097,86.9118 L 76.6209,86.9703 L 77.1438,87.0199 L 77.6695,87.0608 L 78.2041,87.0929 L 78.7415,87.1163 L 79.2819,87.1338 L 79.8252,87.1368 L 79.8252,87.1368 L 80.3656,87.1338 L 80.906,87.1163 L 81.4435,87.0929 L 81.978,87.0608 L 82.5038,87.0199 L 83.0266,86.9703 L 83.5407,86.9118 L 84.0402,86.8417 L 84.5339,86.7629 L 85.0158,86.6782 L 85.4802,86.5818 L 85.9359,86.4795 L 86.3711,86.3715 L 86.7918,86.2546 L 87.1919,86.1319 L 87.5775,86.0005 L 87.9397,85.8632 L 88.2815,85.7201 L 88.6057,85.5711 L 88.9007,85.4134 L 89.1753,85.2527 L 89.4265,85.0892 L 89.6543,84.9227 L 89.8559,84.7503 L 90.0311,84.5751 L 90.1801,84.3969 L 90.2999,84.2158 L 90.3963,84.0347 L 90.4664,83.8477 L 90.5073,83.6666 L 90.5219,83.4797z"/>
      <path style="fill: none; stroke-opacity: 1; stroke-width: 0.02; stroke: #494936" d="M 90.3963 83.4213 L 90.3817,83.2343 L 90.3437,83.0562 L 90.2765,82.875 L 90.183,82.6969 L 90.0574,82.5158 L 89.9055,82.3434 L 89.739,82.1682 L 89.5346,82.0046 L 89.3097,81.8381 L 89.0614,81.6745 L 88.7868,81.5197 L 88.4918,81.3649 L 88.1734,81.2189 L 87.8375,81.0728 L 87.4694,80.9414 L 87.0868,80.8128 L 86.6866,80.6902 L 86.2718,80.5762 L 85.8395,80.4711 L 85.3897,80.3688 L 84.9223,80.2783 L 84.4462,80.1936 L 83.9555,80.1147 L 83.4589,80.0475 L 82.9507,79.9891 L 82.4278,79.9424 L 81.905,79.8956 L 81.3733,79.8694 L 80.8417,79.846 L 80.2984,79.8314 L 79.761,79.8226 L 79.761,79.8226 L 79.2235,79.8314 L 78.686,79.846 L 78.1486,79.8694 L 77.6228,79.8956 L 77.097,79.9424 L 76.5771,79.9891 L 76.0659,80.0475 L 75.5664,80.1147 L 75.0786,80.1936 L 74.6025,80.2783 L 74.1352,80.3688 L 73.6853,80.4711 L 73.2559,80.5762 L 72.8353,80.6902 L 72.4322,80.8128 L 72.0525,80.9414 L 71.6903,81.0728 L 71.3544,81.2189 L 71.0331,81.3649 L 70.7351,81.5197 L 70.4664,81.6745 L 70.2181,81.8381 L 69.9874,82.0046 L 69.7887,82.1682 L 69.6164,82.3434 L 69.4674,82.5158 L 69.3448,82.6969 L 69.2484,82.875 L 69.1812,83.0562 L 69.1432,83.2343 L 69.1286,83.4213 L 69.1286,83.4213 L 69.1432,83.6024 L 69.1812,83.7806 L 69.2484,83.9646 L 69.3448,84.1428 L 69.4674,84.3209 L 69.6164,84.4962 L 69.7887,84.6685 L 69.9874,84.835 L 70.2181,84.9986 L 70.4664,85.1651 L 70.7351,85.3228 L 71.0331,85.4718 L 71.3544,85.6208 L 71.6903,85.7639 L 72.0525,85.8983 L 72.4322,86.0268 L 72.8353,86.1465 L 73.2559,86.2634 L 73.6853,86.3685 L 74.1352,86.4708 L 74.6025,86.5642 L 75.0786,86.646 L 75.5664,86.722 L 76.0659,86.7892 L 76.5771,86.8476 L 77.097,86.8972 L 77.6228,86.9411 L 78.1486,86.9703 L 78.686,86.9936 L 79.2235,87.0082 L 79.761,87.0141 L 79.761,87.0141 L 80.2984,87.0082 L 80.8417,86.9936 L 81.3733,86.9703 L 81.905,86.9411 L 82.4278,86.8972 L 82.9507,86.8476 L 83.4589,86.7892 L 83.9555,86.722 L 84.4462,86.646 L 84.9223,86.5642 L 85.3897,86.4708 L 85.8395,86.3685 L 86.2718,86.2634 L 86.6866,86.1465 L 87.0868,86.0268 L 87.4694,85.8983 L 87.8375,85.7639 L 88.1734,85.6208 L 88.4918,85.4718 L 88.7868,85.3228 L 89.0614,85.1651 L 89.3097,84.9986 L 89.5346,84.835 L 89.739,84.6685 L 89.9055,84.4962 L 90.0574,84.3209 L 90.183,84.1428 L 90.2765,83.9646 L 90.3437,83.7806 L 90.3817,83.6024 L 90.3963,83.4213"/>
      <path style="fill: #a5a585; fill-opacity: 1; stroke: none" fill-rule="evenodd" d="M 69.1286 75.8413 L 69.1286,83.544 L 90.3963,83.544 L 90.3963,75.8413 L 69.1286,75.8413z"/>
      <path style="fill: #c9c9b6; fill-opacity: 1; stroke: none" fill-rule="evenodd" d="M 90.5219 75.7771 L 90.5073,75.5872 L 90.4664,75.4032 L 90.3963,75.2221 L 90.2999,75.041 L 90.1801,74.857 L 90.0311,74.6788 L 89.8559,74.5006 L 89.6543,74.3341 L 89.4265,74.1676 L 89.1753,73.9982 L 88.9007,73.8434 L 88.6057,73.6856 L 88.2815,73.5338 L 87.9397,73.3935 L 87.5775,73.2563 L 87.1919,73.1219 L 86.7918,72.9992 L 86.3711,72.8853 L 85.9359,72.7743 L 85.4802,72.6721 L 85.0158,72.5786 L 84.5339,72.4939 L 84.0402,72.415 L 83.5407,72.3449 L 83.0266,72.2865 L 82.5038,72.2368 L 81.978,72.1959 L 81.4435,72.1638 L 80.906,72.1375 L 80.3656,72.1229 L 79.8252,72.12 L 79.8252,72.12 L 79.2819,72.1229 L 78.7415,72.1375 L 78.2041,72.1638 L 77.6695,72.1959 L 77.1438,72.2368 L 76.6209,72.2865 L 76.1097,72.3449 L 75.6073,72.415 L 75.1137,72.4939 L 74.6317,72.5786 L 74.1673,72.6721 L 73.7145,72.7743 L 73.2793,72.8853 L 72.8587,72.9992 L 72.4556,73.1219 L 72.07,73.2563 L 71.7107,73.3935 L 71.3661,73.5338 L 71.0448,73.6856 L 70.7468,73.8434 L 70.4723,73.9982 L 70.221,74.1676 L 69.9932,74.3341 L 69.7917,74.5006 L 69.6164,74.6788 L 69.4674,74.857 L 69.3477,75.041 L 69.2513,75.2221 L 69.1812,75.4032 L 69.1432,75.5872 L 69.1286,75.7771 L 69.1286,75.7771 L 69.1432,75.9611 L 69.1812,76.148 L 69.2513,76.3262 L 69.3477,76.5132 L 69.4674,76.6913 L 69.6164,76.8724 L 69.7917,77.0477 L 69.9932,77.2171 L 70.221,77.3865 L 70.4723,77.5501 L 70.7468,77.7108 L 71.0448,77.8656 L 71.3661,78.0145 L 71.7107,78.1577 L 72.07,78.2979 L 72.4556,78.4264 L 72.8587,78.552 L 73.2793,78.6688 L 73.7145,78.7769 L 74.1673,78.8791 L 74.6317,78.9755 L 75.1137,79.0573 L 75.6073,79.1391 L 76.1097,79.2063 L 76.6209,79.2647 L 77.1438,79.3173 L 77.6695,79.3553 L 78.2041,79.3903 L 78.7415,79.4137 L 79.2819,79.4283 L 79.8252,79.4341 L 79.8252,79.4341 L 80.3656,79.4283 L 80.906,79.4137 L 81.4435,79.3903 L 81.978,79.3553 L 82.5038,79.3173 L 83.0266,79.2647 L 83.5407,79.2063 L 84.0402,79.1391 L 84.5339,79.0573 L 85.0158,78.9755 L 85.4802,78.8791 L 85.9359,78.7769 L 86.3711,78.6688 L 86.7918,78.552 L 87.1919,78.4264 L 87.5775,78.2979 L 87.9397,78.1577 L 88.2815,78.0145 L 88.6057,77.8656 L 88.9007,77.7108 L 89.1753,77.5501 L 89.4265,77.3865 L 89.6543,77.2171 L 89.8559,77.0477 L 90.0311,76.8724 L 90.1801,76.6913 L 90.2999,76.5132 L 90.3963,76.3262 L 90.4664,76.148 L 90.5073,75.9611 L 90.5219,75.7771z"/>
      <path style="fill: none; stroke-opacity: 1; stroke-width: 0.02; stroke: #494936" d="M 90.3963 75.7186 L 90.3817,75.5317 L 90.3437,75.3535 L 90.2765,75.1753 L 90.183,74.9942 L 90.0574,74.8102 L 89.9055,74.6379 L 89.739,74.4714 L 89.5346,74.2991 L 89.3097,74.1355 L 89.0614,73.969 L 88.7868,73.8171 L 88.4918,73.6623 L 88.1734,73.5133 L 87.8375,73.376 L 87.4694,73.2387 L 87.0868,73.1131 L 86.6866,72.9905 L 86.2718,72.8736 L 85.8395,72.7655 L 85.3897,72.6662 L 84.9223,72.5757 L 84.4462,72.491 L 83.9555,72.415 L 83.4589,72.3449 L 82.9507,72.2865 L 82.4278,72.2368 L 81.905,72.1959 L 81.3733,72.1638 L 81.1952,72.1551 L 78.3268,72.1551 L 78.1486,72.1638 L 77.6228,72.1959 L 77.097,72.2368 L 76.5771,72.2865 L 76.0659,72.3449 L 75.5664,72.415 L 75.0786,72.491 L 74.6025,72.5757 L 74.1352,72.6662 L 73.6853,72.7655 L 73.2559,72.8736 L 72.8353,72.9905 L 72.4322,73.1131 L 72.0525,73.2387 L 71.6903,73.376 L 71.3544,73.5133 L 71.0331,73.6623 L 70.7351,73.8171 L 70.4664,73.969 L 70.2181,74.1355 L 69.9874,74.2991 L 69.7887,74.4714 L 69.6164,74.6379 L 69.4674,74.8102 L 69.3448,74.9942 L 69.2484,75.1753 L 69.1812,75.3535 L 69.1432,75.5317 L 69.1286,75.7186 L 69.1286,75.7186 L 69.1432,75.8968 L 69.1812,76.0808 L 69.2484,76.262 L 69.3448,76.4401 L 69.4674,76.6183 L 69.6164,76.7936 L 69.7887,76.963 L 69.9874,77.1353 L 70.2181,77.2989 L 70.4664,77.4625 L 70.7351,77.6202 L 71.0331,77.7692 L 71.3544,77.9152 L 71.6903,78.0613 L 72.0525,78.1956 L 72.4322,78.3212 L 72.8353,78.441 L 73.2559,78.5578 L 73.6853,78.663 L 74.1352,78.7652 L 74.6025,78.8616 L 75.0786,78.9376 L 75.5664,79.0194 L 76.0659,79.0836 L 76.5771,79.145 L 77.097,79.1975 L 77.6228,79.2384 L 78.1486,79.2706 L 78.686,79.291 L 79.2235,79.3027 L 79.761,79.3115 L 79.761,79.3115 L 80.2984,79.3027 L 80.8417,79.291 L 81.3733,79.2706 L 81.905,79.2384 L 82.4278,79.1975 L 82.9507,79.145 L 83.4589,79.0836 L 83.9555,79.0194 L 84.4462,78.9376 L 84.9223,78.8616 L 85.3897,78.7652 L 85.8395,78.663 L 86.2718,78.5578 L 86.6866,78.441 L 87.0868,78.3212 L 87.4694,78.1956 L 87.8375,78.0613 L 88.1734,77.9152 L 88.4918,77.7692 L 88.7868,77.6202 L 89.0614,77.4625 L 89.3097,77.2989 L 89.5346,77.1353 L 89.739,76.963 L 89.9055,76.7936 L 90.0574,76.6183 L 90.183,76.4401 L 90.2765,76.262 L 90.3437,76.0808 L 90.3817,75.8968 L 90.3963,75.7186"/>
      <path style="fill: none; stroke-opacity: 1; stroke-width: 0.02; stroke: #000000" d="M 69.1286 75.7186 L 69.1286,83.4154"/>
      <path style="fill: none; stroke-opacity: 1; stroke-width: 0.02; stroke: #000000" d="M 90.3963 75.7186 L 90.3963,83.4154"/>
    </g>
    <text font-size="12.8" style="fill: #000000; fill-opacity: 1; stroke: none;text-anchor:start;font-family:sans-serif;font-style:normal;font-weight:normal" x="131.015" y="17.8751">
      <tspan x="131.015" y="17.8751"></tspan>
    </text>
    <text font-size="12.8" style="fill: #000000; fill-opacity: 1; stroke: none;text-anchor:start;font-family:sans-serif;font-style:normal;font-weight:normal" x="289.524" y="71.6922">
      <tspan x="289.524" y="71.6922"></tspan>
    </text>
    <text font-size="12.8" style="fill: #000000; fill-opacity: 1; stroke: none;text-anchor:start;font-family:sans-serif;font-style:normal;font-weight:normal" x="221.388" y="235.94">
      <tspan x="221.388" y="235.94"></tspan>
    </text>
    <text font-size="6.77333" style="fill: #000000; fill-opacity: 1; stroke: none;text-anchor:start;font-family:sans-serif;font-style:normal;font-weight:normal" x="20.0806" y="50.3444">
      <tspan x="20.0806" y="50.3444">sr3-examples/empty-amqp-pump</tspan>
      <tspan x="20.0806" y="58.8111">/sample/groceries</tspan>
    </text>
    <text font-size="12.8" style="fill: #000000; fill-opacity: 1; stroke: none;text-anchor:start;font-family:sans-serif;font-style:normal;font-weight:normal" x="43.2554" y="214.282">
      <tspan x="43.2554" y="214.282"></tspan>
    </text>
    <text font-size="6.77333" style="fill: #000000; fill-opacity: 1; stroke: none;text-anchor:start;font-family:sans-serif;font-style:normal;font-weight:normal" x="89.8302" y="226.358">
      <tspan x="89.8302" y="226.358">$HOME/hungry</tspan>
    </text>
    <g>
      <path style="fill: #a5a585; fill-opacity: 1; stroke: none" fill-rule="evenodd" d="M 121.794 243.228 L 121.78,243.041 L 121.739,242.857 L 121.669,242.673 L 121.572,242.492 L 121.453,242.311 L 121.304,242.132 L 121.128,241.957 L 120.927,241.785 L 120.699,241.615 L 120.448,241.455 L 120.173,241.294 L 119.878,241.136 L 119.554,240.987 L 119.212,240.844 L 118.85,240.707 L 118.465,240.575 L 118.064,240.453 L 117.644,240.336 L 117.209,240.228 L 116.753,240.126 L 116.288,240.029 L 115.806,239.945 L 115.313,239.863 L 114.813,239.796 L 114.299,239.737 L 113.776,239.687 L 113.251,239.644 L 112.716,239.614 L 112.179,239.588 L 111.638,239.571 L 111.098,239.571 L 111.098,239.571 L 110.555,239.571 L 110.014,239.588 L 109.477,239.614 L 108.942,239.644 L 108.416,239.687 L 107.894,239.737 L 107.382,239.796 L 106.88,239.863 L 106.386,239.945 L 105.904,240.029 L 105.44,240.126 L 104.987,240.228 L 104.552,240.336 L 104.131,240.453 L 103.728,240.575 L 103.343,240.707 L 102.983,240.844 L 102.639,240.987 L 102.317,241.136 L 102.019,241.294 L 101.745,241.455 L 101.494,241.615 L 101.266,241.785 L 101.064,241.957 L 100.889,242.132 L 100.74,242.311 L 100.62,242.492 L 100.524,242.673 L 100.454,242.857 L 100.416,243.041 L 100.401,243.228 L 100.401,243.228 L 100.416,243.415 L 100.454,243.596 L 100.524,243.783 L 100.62,243.964 L 100.74,244.145 L 100.889,244.323 L 101.064,244.498 L 101.266,244.671 L 101.494,244.837 L 101.745,245.001 L 102.019,245.161 L 102.317,245.319 L 102.639,245.468 L 102.983,245.611 L 103.343,245.748 L 103.728,245.88 L 104.131,246.003 L 104.552,246.119 L 104.987,246.228 L 105.44,246.33 L 105.904,246.426 L 106.386,246.511 L 106.88,246.59 L 107.382,246.66 L 107.894,246.718 L 108.416,246.768 L 108.942,246.809 L 109.477,246.841 L 110.014,246.864 L 110.555,246.882 L 111.098,246.885 L 111.098,246.885 L 111.638,246.882 L 112.179,246.864 L 112.716,246.841 L 113.251,246.809 L 113.776,246.768 L 114.299,246.718 L 114.813,246.66 L 115.313,246.59 L 115.806,246.511 L 116.288,246.426 L 116.753,246.33 L 117.209,246.228 L 117.644,246.119 L 118.064,246.003 L 118.465,245.88 L 118.85,245.748 L 119.212,245.611 L 119.554,245.468 L 119.878,245.319 L 120.173,245.161 L 120.448,245.001 L 120.699,244.837 L 120.927,244.671 L 121.128,244.498 L 121.304,244.323 L 121.453,244.145 L 121.572,243.964 L 121.669,243.783 L 121.739,243.596 L 121.78,243.415 L 121.794,243.228z"/>
      <path style="fill: none; stroke-opacity: 1; stroke-width: 0.02; stroke: #494936" d="M 121.669 243.169 L 121.654,242.982 L 121.616,242.804 L 121.549,242.623 L 121.456,242.445 L 121.33,242.264 L 121.178,242.091 L 121.012,241.916 L 120.807,241.753 L 120.582,241.586 L 120.334,241.423 L 120.059,241.268 L 119.764,241.113 L 119.446,240.967 L 119.11,240.821 L 118.742,240.689 L 118.359,240.561 L 117.959,240.438 L 117.544,240.324 L 117.112,240.219 L 116.662,240.117 L 116.195,240.026 L 115.719,239.942 L 115.228,239.863 L 114.732,239.796 L 114.223,239.737 L 113.7,239.69 L 113.178,239.644 L 112.646,239.617 L 112.114,239.594 L 111.571,239.579 L 111.034,239.571 L 111.034,239.571 L 110.496,239.579 L 109.959,239.594 L 109.421,239.617 L 108.895,239.644 L 108.37,239.69 L 107.85,239.737 L 107.339,239.796 L 106.839,239.863 L 106.351,239.942 L 105.875,240.026 L 105.408,240.117 L 104.958,240.219 L 104.529,240.324 L 104.108,240.438 L 103.705,240.561 L 103.325,240.689 L 102.963,240.821 L 102.627,240.967 L 102.306,241.113 L 102.008,241.268 L 101.739,241.423 L 101.491,241.586 L 101.26,241.753 L 101.061,241.916 L 100.889,242.091 L 100.74,242.264 L 100.617,242.445 L 100.521,242.623 L 100.454,242.804 L 100.416,242.982 L 100.401,243.169 L 100.401,243.169 L 100.416,243.35 L 100.454,243.529 L 100.521,243.713 L 100.617,243.891 L 100.74,244.069 L 100.889,244.244 L 101.061,244.417 L 101.26,244.583 L 101.491,244.747 L 101.739,244.913 L 102.008,245.071 L 102.306,245.22 L 102.627,245.369 L 102.963,245.512 L 103.325,245.646 L 103.705,245.775 L 104.108,245.895 L 104.529,246.011 L 104.958,246.117 L 105.408,246.219 L 105.875,246.312 L 106.351,246.394 L 106.839,246.47 L 107.339,246.537 L 107.85,246.596 L 108.37,246.645 L 108.895,246.689 L 109.421,246.718 L 109.959,246.742 L 110.496,246.756 L 111.034,246.762 L 111.034,246.762 L 111.571,246.756 L 112.114,246.742 L 112.646,246.718 L 113.178,246.689 L 113.7,246.645 L 114.223,246.596 L 114.732,246.537 L 115.228,246.47 L 115.719,246.394 L 116.195,246.312 L 116.662,246.219 L 117.112,246.117 L 117.544,246.011 L 117.959,245.895 L 118.359,245.775 L 118.742,245.646 L 119.11,245.512 L 119.446,245.369 L 119.764,245.22 L 120.059,245.071 L 120.334,244.913 L 120.582,244.747 L 120.807,244.583 L 121.012,244.417 L 121.178,244.244 L 121.33,244.069 L 121.456,243.891 L 121.549,243.713 L 121.616,243.529 L 121.654,243.35 L 121.669,243.169"/>
      <path style="fill: #a5a585; fill-opacity: 1; stroke: none" fill-rule="evenodd" d="M 100.401 235.589 L 100.401,243.292 L 121.669,243.292 L 121.669,235.589 L 100.401,235.589z"/>
      <path style="fill: #c9c9b6; fill-opacity: 1; stroke: none" fill-rule="evenodd" d="M 121.794 235.525 L 121.78,235.335 L 121.739,235.151 L 121.669,234.97 L 121.572,234.789 L 121.453,234.605 L 121.304,234.427 L 121.128,234.249 L 120.927,234.082 L 120.699,233.916 L 120.448,233.746 L 120.173,233.591 L 119.878,233.434 L 119.554,233.282 L 119.212,233.142 L 118.85,233.004 L 118.465,232.87 L 118.064,232.747 L 117.644,232.633 L 117.209,232.522 L 116.753,232.42 L 116.288,232.327 L 115.806,232.242 L 115.313,232.163 L 114.813,232.093 L 114.299,232.034 L 113.776,231.985 L 113.251,231.944 L 112.716,231.912 L 112.179,231.886 L 111.638,231.871 L 111.098,231.868 L 111.098,231.868 L 110.555,231.871 L 110.014,231.886 L 109.477,231.912 L 108.942,231.944 L 108.416,231.985 L 107.894,232.034 L 107.382,232.093 L 106.88,232.163 L 106.386,232.242 L 105.904,232.327 L 105.44,232.42 L 104.987,232.522 L 104.552,232.633 L 104.131,232.747 L 103.728,232.87 L 103.343,233.004 L 102.983,233.142 L 102.639,233.282 L 102.317,233.434 L 102.019,233.591 L 101.745,233.746 L 101.494,233.916 L 101.266,234.082 L 101.064,234.249 L 100.889,234.427 L 100.74,234.605 L 100.62,234.789 L 100.524,234.97 L 100.454,235.151 L 100.416,235.335 L 100.401,235.525 L 100.401,235.525 L 100.416,235.709 L 100.454,235.896 L 100.524,236.074 L 100.62,236.261 L 100.74,236.439 L 100.889,236.62 L 101.064,236.796 L 101.266,236.965 L 101.494,237.135 L 101.745,237.298 L 102.019,237.459 L 102.317,237.614 L 102.639,237.763 L 102.983,237.906 L 103.343,238.046 L 103.728,238.174 L 104.131,238.3 L 104.552,238.417 L 104.987,238.525 L 105.44,238.627 L 105.904,238.724 L 106.386,238.805 L 106.88,238.887 L 107.382,238.954 L 107.894,239.013 L 108.416,239.065 L 108.942,239.103 L 109.477,239.138 L 110.014,239.162 L 110.555,239.176 L 111.098,239.182 L 111.098,239.182 L 111.638,239.176 L 112.179,239.162 L 112.716,239.138 L 113.251,239.103 L 113.776,239.065 L 114.299,239.013 L 114.813,238.954 L 115.313,238.887 L 115.806,238.805 L 116.288,238.724 L 116.753,238.627 L 117.209,238.525 L 117.644,238.417 L 118.064,238.3 L 118.465,238.174 L 118.85,238.046 L 119.212,237.906 L 119.554,237.763 L 119.878,237.614 L 120.173,237.459 L 120.448,237.298 L 120.699,237.135 L 120.927,236.965 L 121.128,236.796 L 121.304,236.62 L 121.453,236.439 L 121.572,236.261 L 121.669,236.074 L 121.739,235.896 L 121.78,235.709 L 121.794,235.525z"/>
      <path style="fill: none; stroke-opacity: 1; stroke-width: 0.02; stroke: #494936" d="M 121.669 235.467 L 121.654,235.28 L 121.616,235.102 L 121.549,234.923 L 121.456,234.742 L 121.33,234.558 L 121.178,234.386 L 121.012,234.219 L 120.807,234.047 L 120.582,233.883 L 120.334,233.717 L 120.059,233.565 L 119.764,233.41 L 119.446,233.261 L 119.11,233.124 L 118.742,232.987 L 118.359,232.861 L 117.959,232.738 L 117.544,232.622 L 117.112,232.514 L 116.662,232.414 L 116.195,232.324 L 115.719,232.239 L 115.228,232.163 L 114.732,232.093 L 114.223,232.034 L 113.7,231.985 L 113.178,231.944 L 112.646,231.912 L 112.468,231.903 L 109.599,231.903 L 109.421,231.912 L 108.895,231.944 L 108.37,231.985 L 107.85,232.034 L 107.339,232.093 L 106.839,232.163 L 106.351,232.239 L 105.875,232.324 L 105.408,232.414 L 104.958,232.514 L 104.529,232.622 L 104.108,232.738 L 103.705,232.861 L 103.325,232.987 L 102.963,233.124 L 102.627,233.261 L 102.306,233.41 L 102.008,233.565 L 101.739,233.717 L 101.491,233.883 L 101.26,234.047 L 101.061,234.219 L 100.889,234.386 L 100.74,234.558 L 100.617,234.742 L 100.521,234.923 L 100.454,235.102 L 100.416,235.28 L 100.401,235.467 L 100.401,235.467 L 100.416,235.645 L 100.454,235.829 L 100.521,236.01 L 100.617,236.188 L 100.74,236.366 L 100.889,236.542 L 101.061,236.711 L 101.26,236.883 L 101.491,237.047 L 101.739,237.21 L 102.008,237.368 L 102.306,237.517 L 102.627,237.663 L 102.963,237.809 L 103.325,237.944 L 103.705,238.069 L 104.108,238.189 L 104.529,238.306 L 104.958,238.411 L 105.408,238.513 L 105.875,238.61 L 106.351,238.686 L 106.839,238.767 L 107.339,238.832 L 107.85,238.893 L 108.37,238.946 L 108.895,238.986 L 109.421,239.019 L 109.959,239.039 L 110.496,239.051 L 111.034,239.059 L 111.034,239.059 L 111.571,239.051 L 112.114,239.039 L 112.646,239.019 L 113.178,238.986 L 113.7,238.946 L 114.223,238.893 L 114.732,238.832 L 115.228,238.767 L 115.719,238.686 L 116.195,238.61 L 116.662,238.513 L 117.112,238.411 L 117.544,238.306 L 117.959,238.189 L 118.359,238.069 L 118.742,237.944 L 119.11,237.809 L 119.446,237.663 L 119.764,237.517 L 120.059,237.368 L 120.334,237.21 L 120.582,237.047 L 120.807,236.883 L 121.012,236.711 L 121.178,236.542 L 121.33,236.366 L 121.456,236.188 L 121.549,236.01 L 121.616,235.829 L 121.654,235.645 L 121.669,235.467"/>
      <path style="fill: none; stroke-opacity: 1; stroke-width: 0.02; stroke: #000000" d="M 100.401 235.467 L 100.401,243.163"/>
      <path style="fill: none; stroke-opacity: 1; stroke-width: 0.02; stroke: #000000" d="M 121.669 235.467 L 121.669,243.163"/>
    </g>
    <text font-size="12.8" style="fill: #000000; fill-opacity: 1; stroke: none;text-anchor:start;font-family:sans-serif;font-style:normal;font-weight:normal" x="120.659" y="219.688">
      <tspan x="120.659" y="219.688"></tspan>
    </text>
    <text font-size="12.8" style="fill: #000000; fill-opacity: 1; stroke: none;text-anchor:start;font-family:sans-serif;font-style:normal;font-weight:normal" x="174.755" y="110.282">
      <tspan x="174.755" y="110.282"></tspan>
    </text>
    <rect style="fill: #e5e5e5; fill-opacity: 1; stroke-opacity: 1; stroke-width: 0.2; stroke-linejoin: round; stroke: #000000" x="155.378" y="227.014" width="158" height="29" rx="2" ry="2"/>
    <ellipse style="fill: #ffffff; fill-opacity: 1; stroke-opacity: 1; stroke-width: 0.2; stroke-linejoin: round; stroke: #000000" cx="237.327" cy="238.11" rx="16.0455" ry="7.7618"/>
    <text font-size="6.77333" style="fill: #000000; fill-opacity: 1; stroke: none;text-anchor:start;font-family:sans-serif;font-style:normal;font-weight:normal" x="277.878" y="243.276">
      <tspan x="277.878" y="243.276">subscribe</tspan>
    </text>
    <text font-size="12.8" style="fill: #000000; fill-opacity: 1; stroke: none;text-anchor:start;font-family:sans-serif;font-style:normal;font-weight:normal" x="175.616" y="248.502">
      <tspan x="175.616" y="248.502"></tspan>
    </text>
    <text font-size="6.77333" style="fill: #000000; fill-opacity: 1; stroke: none;text-anchor:start;font-family:sans-serif;font-style:normal;font-weight:normal" x="224.942" y="240.304">
      <tspan x="224.942" y="240.304">hungry</tspan>
    </text>
    <text font-size="12.8" style="fill: #000000; fill-opacity: 1; stroke: none;text-anchor:start;font-family:sans-serif;font-style:normal;font-weight:normal" x="241.048" y="202.096">
      <tspan x="241.048" y="202.096"></tspan>
    </text>
    <text font-size="12.8" style="fill: #000000; fill-opacity: 1; stroke: none;text-anchor:start;font-family:sans-serif;font-style:normal;font-weight:normal" x="234.378" y="241.514">
      <tspan x="234.378" y="241.514"></tspan>
    </text>
    <text font-size="12.8" style="fill: #000000; fill-opacity: 1; stroke: none;text-anchor:start;font-family:sans-serif;font-style:normal;font-weight:normal" x="202.374" y="255.872">
      <tspan x="202.374" y="255.872"></tspan>
    </text>
    <text font-size="12.8" style="fill: #000000; fill-opacity: 1; stroke: none;text-anchor:start;font-family:sans-serif;font-style:normal;font-weight:normal" x="237.79" y="240.522">
      <tspan x="237.79" y="240.522"></tspan>
    </text>
    <text font-size="12.8" style="fill: #000000; fill-opacity: 1; stroke: none;text-anchor:start;font-family:sans-serif;font-style:normal;font-weight:normal" x="286.56" y="242.204">
      <tspan x="286.56" y="242.204"></tspan>
    </text>
    <text font-size="12.8" style="fill: #000000; fill-opacity: 1; stroke: none;text-anchor:start;font-family:sans-serif;font-style:normal;font-weight:normal" x="284.504" y="242.282">
      <tspan x="284.504" y="242.282"></tspan>
    </text>
    <text font-size="12.8" style="fill: #000000; fill-opacity: 1; stroke: none;text-anchor:start;font-family:sans-serif;font-style:normal;font-weight:normal" x="243.254" y="241.282">
      <tspan x="243.254" y="241.282"></tspan>
    </text>
    <text font-size="12.8" style="fill: #000000; fill-opacity: 1; stroke: none;text-anchor:start;font-family:sans-serif;font-style:normal;font-weight:normal" x="77.5054" y="156.969">
      <tspan x="77.5054" y="156.969"></tspan>
    </text>
    <text font-size="12.7998" style="fill: #000000; fill-opacity: 1; stroke: none;text-anchor:start;font-family:sans-serif;font-style:normal;font-weight:normal" x="65.0719" y="20.6701">
      <tspan x="65.0719" y="20.6701"></tspan>
    </text>
  </g>
  <g id="Broker">
    <rect style="fill: #00ff00; fill-opacity: 0.341176; stroke-opacity: 0.403922; stroke-width: 2; stroke: #00ff00" x="122.239" y="103.024" width="206.121" height="113.49" rx="0" ry="0"/>
    <g>
      <ellipse style="fill: #ffffff; fill-opacity: 1; stroke-opacity: 1; stroke-width: 2; stroke: #000000" cx="216.833" cy="192.081" rx="32.7036" ry="20"/>
      <line style="fill: none; stroke-opacity: 1; stroke-width: 2; stroke: #000000" x1="216.833" y1="212.081" x2="249.536" y2="212.081"/>
      <text font-size="12.8" style="fill: #000000; fill-opacity: 1; stroke: none;text-anchor:middle;font-family:sans-serif;font-style:normal;font-weight:normal" x="216.833" y="195.962">
        <tspan x="216.833" y="195.962"></tspan>
      </text>
    </g>
    <text font-size="6.77333" style="fill: #000000; fill-opacity: 1; stroke: none;text-anchor:start;font-family:sans-serif;font-style:normal;font-weight:normal" x="193.929" y="189.153">
      <tspan x="193.929" y="189.153">sr_subscribe_</tspan>
      <tspan x="193.929" y="197.62">hungry_x_y</tspan>
    </text>
    <text font-size="12.8" style="fill: #000000; fill-opacity: 1; stroke: none;text-anchor:start;font-family:sans-serif;font-style:normal;font-weight:normal" x="255.882" y="197.776">
      <tspan x="255.882" y="197.776"></tspan>
    </text>
    <g>
      <polygon style="fill: #ffffff; fill-opacity: 1; stroke-opacity: 1; stroke-width: 2; stroke: #000000" fill-rule="evenodd" points="232.956,140.577 283.936,140.577 270.106,178.577 219.125,178.577 "/>
      <text font-size="12.8" style="fill: #000000; fill-opacity: 1; stroke: none;text-anchor:middle;font-family:sans-serif;font-style:normal;font-weight:normal" x="251.531" y="163.458">
        <tspan x="251.531" y="163.458"></tspan>
      </text>
    </g>
    <text font-size="6.77333" style="fill: #000000; fill-opacity: 1; stroke: none;text-anchor:start;font-family:sans-serif;font-style:normal;font-weight:normal" x="232.271" y="160.223">
      <tspan x="232.271" y="160.223">v03.fruits.#</tspan>
    </text>
    <text font-size="12.7998" style="fill: #000000; fill-opacity: 1; stroke: none;text-anchor:start;font-family:sans-serif;font-style:normal;font-weight:normal" x="186.049" y="152.435">
      <tspan x="186.049" y="152.435"></tspan>
    </text>
    <text font-size="12.7998" style="fill: #000000; fill-opacity: 1; stroke: none;text-anchor:start;font-family:sans-serif;font-style:normal;font-weight:normal" x="177.01" y="238.837">
      <tspan x="177.01" y="238.837"></tspan>
    </text>
    <text font-size="12.7998" style="fill: #000000; fill-opacity: 1; stroke: none;text-anchor:start;font-family:sans-serif;font-style:normal;font-weight:normal" x="174.907" y="294.336">
      <tspan x="174.907" y="294.336"></tspan>
    </text>
    <text font-size="6.77323" style="fill: #000000; fill-opacity: 1; stroke: none;text-anchor:start;font-family:sans-serif;font-style:normal;font-weight:normal" x="172.595" y="240.308">
      <tspan x="172.595" y="240.308">reject .*\.qty$</tspan>
    </text>
    <text font-size="12.7998" style="fill: #000000; fill-opacity: 1; stroke: none;text-anchor:start;font-family:sans-serif;font-style:normal;font-weight:normal" x="124.286" y="25.904">
      <tspan x="124.286" y="25.904"></tspan>
    </text>
    <text font-size="12.7998" style="fill: #000000; fill-opacity: 1; stroke: none;text-anchor:start;font-family:sans-serif;font-style:normal;font-weight:normal" x="155.205" y="5.98487">
      <tspan x="155.205" y="5.98487"></tspan>
    </text>
    <text font-size="12.7998" style="fill: #000000; fill-opacity: 1; stroke: none;text-anchor:start;font-family:sans-serif;font-style:normal;font-weight:normal" x="126.367" y="23.2283">
      <tspan x="126.367" y="23.2283"></tspan>
    </text>
    <text font-size="12.7998" style="fill: #000000; fill-opacity: 1; stroke: none;text-anchor:start;font-family:sans-serif;font-style:normal;font-weight:normal" x="125.773" y="22.0391">
      <tspan x="125.773" y="22.0391"></tspan>
    </text>
  </g>
  <g id="103_a_filtering">
    <text font-size="12.8" style="fill: #000000; fill-opacity: 1; stroke: none;text-anchor:start;font-family:sans-serif;font-style:normal;font-weight:normal" x="62.5054" y="18.4075">
      <tspan x="62.5054" y="18.4075"></tspan>
    </text>
    <g>
      <line style="fill: none; stroke-opacity: 1; stroke-width: 1; stroke: #00ff00" x1="243.636" y1="75.2334" x2="264.245" y2="122.265"/>
      <polygon style="fill: #00ff00; fill-opacity: 1; stroke-opacity: 1; stroke-width: 1; stroke: #00ff00" fill-rule="evenodd" points="264.847,123.639 263.129,122.208 264.245,122.265 264.96,121.406 "/>
    </g>
    <text font-size="6.77333" style="fill: #000000; fill-opacity: 1; stroke: none;text-anchor:start;font-family:sans-serif;font-style:normal;font-weight:normal" x="72.244" y="147.301">
      <tspan x="72.244" y="147.301">file</tspan>
      <tspan x="72.244" y="155.767">copy</tspan>
    </text>
    <g>
      <line style="fill: none; stroke-opacity: 1; stroke-width: 1; stroke: #00ff00" x1="262.33" y1="148.983" x2="240.001" y2="228.579"/>
      <polygon style="fill: #00ff00; fill-opacity: 1; stroke-opacity: 1; stroke-width: 1; stroke: #00ff00" fill-rule="evenodd" points="239.596,230.024 239.173,227.828 240.001,228.579 241.099,228.368 "/>
    </g>
    <g>
      <line style="fill: none; stroke-opacity: 1; stroke-width: 2; stroke: #ffe9aa" x1="78.0336" y1="91.4008" x2="106.427" y2="221.332"/>
      <polygon style="fill: #ffe9aa; fill-opacity: 1; stroke-opacity: 1; stroke-width: 2; stroke: #ffe9aa" fill-rule="evenodd" points="108.028,228.659 101.008,219.957 106.427,221.332 110.778,217.823 "/>
    </g>
    <text font-size="12.8" style="fill: #000000; fill-opacity: 1; stroke: none;text-anchor:start;font-family:sans-serif;font-style:normal;font-weight:normal" x="62.4884" y="24.5352">
      <tspan x="62.4884" y="24.5352"></tspan>
    </text>
    <text font-size="12.8" style="fill: #000000; fill-opacity: 1; stroke: none;text-anchor:start;font-family:sans-serif;font-style:normal;font-weight:normal" x="117.642" y="24.1816">
      <tspan x="117.642" y="24.1816">Server (subtopic) &amp; Client</tspan>
      <tspan x="117.642" y="40.1816">(accept/reject) filtering.</tspan>
    </text>
    <text font-size="12.7998" style="fill: #000000; fill-opacity: 1; stroke: none;text-anchor:start;font-family:sans-serif;font-style:normal;font-weight:normal" x="134.692" y="22.931">
      <tspan x="134.692" y="22.931"></tspan>
    </text>
  </g>
</svg>
