<?xml version="1.0" encoding="UTF-8" standalone="no"?>
<!DOCTYPE svg PUBLIC "-//W3C//DTD SVG 1.0//EN" "http://www.w3.org/TR/2001/PR-SVG-20010719/DTD/svg10.dtd">
<svg width="16cm" height="22cm" viewBox="13 11 304 440" xmlns="http://www.w3.org/2000/svg" xmlns:xlink="http://www.w3.org/1999/xlink">
  <defs/>
  <g id="Background">
    <rect style="fill: #ffffff; fill-opacity: 1; stroke-opacity: 1; stroke-width: 0.4; stroke-linejoin: round; stroke: #000000" x="17.7552" y="393.9" width="211.25" height="56.5" rx="4" ry="4"/>
    <rect style="fill: #e5e5e5; fill-opacity: 1; stroke-opacity: 1; stroke-width: 0.2; stroke-linejoin: round; stroke: #000000" x="158.34" y="56.503" width="158" height="29" rx="2" ry="2"/>
    <ellipse style="fill: #ffffff; fill-opacity: 1; stroke-opacity: 1; stroke-width: 0.2; stroke-linejoin: round; stroke: #000000" cx="240.289" cy="67.5988" rx="16.0455" ry="7.7618"/>
    <text font-size="6.77333" style="fill: #000000; fill-opacity: 1; stroke: none;text-anchor:start;font-family:sans-serif;font-style:normal;font-weight:normal" x="280.84" y="72.7646">
      <tspan x="280.84" y="72.7646">cpost</tspan>
    </text>
    <text font-size="12.8" style="fill: #000000; fill-opacity: 1; stroke: none;text-anchor:start;font-family:sans-serif;font-style:normal;font-weight:normal" x="178.578" y="77.9894">
      <tspan x="178.578" y="77.9894"></tspan>
    </text>
    <text font-size="6.77333" style="fill: #000000; fill-opacity: 1; stroke: none;text-anchor:start;font-family:sans-serif;font-style:normal;font-weight:normal" x="225.154" y="70.542">
      <tspan x="225.154" y="70.542">my_feed</tspan>
    </text>
    <polygon style="fill: #ffffff; fill-opacity: 1; stroke-opacity: 1; stroke-width: 0.2; stroke: #000000" fill-rule="evenodd" points="310.546,124.669 220.048,124.657 268.048,152.157 "/>
    <text font-size="6.77333" style="fill: #000000; fill-opacity: 1; stroke: none;text-anchor:start;font-family:sans-serif;font-style:normal;font-weight:normal" x="235.188" y="130.896">
      <tspan x="235.188" y="130.896">xs_tsource_xpublic</tspan>
    </text>
    <text font-size="12.8" style="fill: #000000; fill-opacity: 1; stroke: none;text-anchor:start;font-family:sans-serif;font-style:normal;font-weight:normal" x="31.9394" y="186.962">
      <tspan x="31.9394" y="186.962"></tspan>
    </text>
    <text font-size="12.8" style="fill: #000000; fill-opacity: 1; stroke: none;text-anchor:start;font-family:sans-serif;font-style:normal;font-weight:normal" x="246.51" y="94.0836">
      <tspan x="246.51" y="94.0836"></tspan>
    </text>
    <text font-size="12.8" style="fill: #000000; fill-opacity: 1; stroke: none;text-anchor:start;font-family:sans-serif;font-style:normal;font-weight:normal" x="207.546" y="9.88798">
      <tspan x="207.546" y="9.88798"></tspan>
    </text>
    <text font-size="12.8" style="fill: #000000; fill-opacity: 1; stroke: none;text-anchor:start;font-family:sans-serif;font-style:normal;font-weight:normal" x="156.796" y="14.263">
      <tspan x="156.796" y="14.263"></tspan>
    </text>
    <polygon style="fill: #ffffff; fill-opacity: 1; stroke-opacity: 1; stroke-width: 0.2; stroke: #000000" fill-rule="evenodd" points="80.0056,408.5 24.5418,408.308 56.967,429.04 "/>
    <text font-size="6.77333" style="fill: #000000; fill-opacity: 1; stroke: none;text-anchor:start;font-family:sans-serif;font-style:normal;font-weight:normal" x="38.432" y="416.808">
      <tspan x="38.432" y="416.808">exchange</tspan>
    </text>
    <rect style="fill: #e5e5e5; fill-opacity: 1; stroke-opacity: 1; stroke-width: 0.2; stroke-linejoin: round; stroke: #000000" x="90.2652" y="409.15" width="106.237" height="18.5" rx="2" ry="2"/>
    <ellipse style="fill: #ffffff; fill-opacity: 1; stroke-opacity: 1; stroke-width: 0.2; stroke-linejoin: round; stroke: #000000" cx="121.945" cy="419.066" rx="20.5" ry="4.9159"/>
    <text font-size="6.77333" style="fill: #000000; fill-opacity: 1; stroke: none;text-anchor:start;font-family:sans-serif;font-style:normal;font-weight:normal" x="107.45" y="422.542">
      <tspan x="107.45" y="422.542">config</tspan>
    </text>
    <text font-size="6.77333" style="fill: #000000; fill-opacity: 1; stroke: none;text-anchor:start;font-family:sans-serif;font-style:normal;font-weight:normal" x="150.29" y="420.354">
      <tspan x="150.29" y="420.354">Component</tspan>
    </text>
    <text font-size="6.77333" style="fill: #000000; fill-opacity: 1; stroke: none;text-anchor:start;font-family:sans-serif;font-style:normal;font-weight:normal" x="120.988" y="402.406">
      <tspan x="120.988" y="402.406">Legend</tspan>
    </text>
    <g>
      <line style="fill: none; stroke-opacity: 1; stroke-width: 2; stroke-linejoin: round; stroke: #0000ff" x1="88.958" y1="430.908" x2="90.0781" y2="440.173"/>
      <polygon style="fill: #0000ff; fill-opacity: 1; stroke-opacity: 1; stroke-width: 2; stroke: #0000ff" fill-rule="evenodd" points="90.6182,444.64 86.9197,439.044 90.0781,440.173 92.8764,438.323 "/>
    </g>
    <text font-size="6.77333" style="fill: #000000; fill-opacity: 1; stroke: none;text-anchor:start;font-family:sans-serif;font-style:normal;font-weight:normal" x="97.692" y="443.1">
      <tspan x="97.692" y="443.1">http data flow</tspan>
    </text>
    <text font-size="6.77333" style="fill: #000000; fill-opacity: 1; stroke: none;text-anchor:start;font-family:sans-serif;font-style:normal;font-weight:normal" x="35.5786" y="441.592">
      <tspan x="35.5786" y="441.592">sftp data flow</tspan>
    </text>
    <text font-size="6.77333" style="fill: #000000; fill-opacity: 1; stroke: none;text-anchor:start;font-family:sans-serif;font-style:normal;font-weight:normal" x="159.114" y="440.536">
      <tspan x="159.114" y="440.536">amqp posting flow</tspan>
    </text>
    <text font-size="12.8" style="fill: #000000; fill-opacity: 1; stroke: none;text-anchor:start;font-family:sans-serif;font-style:normal;font-weight:normal" x="7.8934" y="291.89">
      <tspan x="7.8934" y="291.89"></tspan>
    </text>
    <text font-size="12.8" style="fill: #000000; fill-opacity: 1; stroke: none;text-anchor:start;font-family:sans-serif;font-style:normal;font-weight:normal" x="237.34" y="71.003">
      <tspan x="237.34" y="71.003"></tspan>
    </text>
    <text font-size="12.8" style="fill: #000000; fill-opacity: 1; stroke: none;text-anchor:start;font-family:sans-serif;font-style:normal;font-weight:normal" x="247.394" y="38.7642">
      <tspan x="247.394" y="38.7642"></tspan>
    </text>
    <text font-size="12.8" style="fill: #000000; fill-opacity: 1; stroke: none;text-anchor:start;font-family:sans-serif;font-style:normal;font-weight:normal" x="69.3934" y="383.014">
      <tspan x="69.3934" y="383.014"></tspan>
    </text>
    <text font-size="12.8" style="fill: #000000; fill-opacity: 1; stroke: none;text-anchor:start;font-family:sans-serif;font-style:normal;font-weight:normal" x="29.8934" y="380.514">
      <tspan x="29.8934" y="380.514"></tspan>
    </text>
    <g>
      <line style="fill: none; stroke-opacity: 1; stroke-width: 2; stroke: #00ff00" x1="152.208" y1="432.17" x2="153.328" y2="441.435"/>
      <polygon style="fill: #00ff00; fill-opacity: 1; stroke-opacity: 1; stroke-width: 2; stroke: #00ff00" fill-rule="evenodd" points="153.868,445.902 150.169,440.305 153.328,441.435 156.126,439.585 "/>
    </g>
    <text font-size="12.8" style="fill: #000000; fill-opacity: 1; stroke: none;text-anchor:start;font-family:sans-serif;font-style:normal;font-weight:normal" x="205.336" y="85.3606">
      <tspan x="205.336" y="85.3606"></tspan>
    </text>
    <text font-size="12.8" style="fill: #000000; fill-opacity: 1; stroke: none;text-anchor:start;font-family:sans-serif;font-style:normal;font-weight:normal" x="9.6396" y="372.966">
      <tspan x="9.6396" y="372.966"></tspan>
    </text>
    <g>
      <line style="fill: none; stroke-opacity: 1; stroke-width: 2; stroke: #000000" x1="30.7556" y1="423" x2="29.952" y2="435.663"/>
      <polygon style="fill: #000000; fill-opacity: 1; stroke-opacity: 1; stroke-width: 2; stroke: #000000" fill-rule="evenodd" points="29.667,440.154 27.053,433.976 29.952,435.663 33.041,434.356 "/>
    </g>
    <text font-size="12.8" style="fill: #000000; fill-opacity: 1; stroke: none;text-anchor:start;font-family:sans-serif;font-style:normal;font-weight:normal" x="45.0056" y="23.25">
      <tspan x="45.0056" y="23.25">102 Tests</tspan>
    </text>
    <text font-size="12.8" style="fill: #000000; fill-opacity: 1; stroke: none;text-anchor:start;font-family:sans-serif;font-style:normal;font-weight:normal" x="130.756" y="16.75">
      <tspan x="130.756" y="16.75"></tspan>
    </text>
    <text font-size="12.8" style="fill: #000000; fill-opacity: 1; stroke: none;text-anchor:start;font-family:sans-serif;font-style:normal;font-weight:normal" x="52.6392" y="32.3236">
      <tspan x="52.6392" y="32.3236"></tspan>
    </text>
    <text font-size="12.8" style="fill: #000000; fill-opacity: 1; stroke: none;text-anchor:start;font-family:sans-serif;font-style:normal;font-weight:normal" x="240.752" y="70.0106">
      <tspan x="240.752" y="70.0106"></tspan>
    </text>
    <g>
      <path style="fill: #a5a585; fill-opacity: 1; stroke: none" fill-rule="evenodd" d="M 90.5219 83.4797 L 90.5073,83.2927 L 90.4664,83.1087 L 90.3963,82.9247 L 90.2999,82.7436 L 90.1801,82.5625 L 90.0311,82.3843 L 89.8559,82.2091 L 89.6543,82.0367 L 89.4265,81.8673 L 89.1753,81.7067 L 88.9007,81.546 L 88.6057,81.3883 L 88.2815,81.2393 L 87.9397,81.0962 L 87.5775,80.9589 L 87.1919,80.8274 L 86.7918,80.7048 L 86.3711,80.5879 L 85.9359,80.4798 L 85.4802,80.3776 L 85.0158,80.2812 L 84.5339,80.1965 L 84.0402,80.1147 L 83.5407,80.0475 L 83.0266,79.9891 L 82.5038,79.9395 L 81.978,79.8956 L 81.4435,79.8664 L 80.906,79.8402 L 80.3656,79.8226 L 79.8252,79.8226 L 79.8252,79.8226 L 79.2819,79.8226 L 78.7415,79.8402 L 78.2041,79.8664 L 77.6695,79.8956 L 77.1438,79.9395 L 76.6209,79.9891 L 76.1097,80.0475 L 75.6073,80.1147 L 75.1137,80.1965 L 74.6317,80.2812 L 74.1673,80.3776 L 73.7145,80.4798 L 73.2793,80.5879 L 72.8587,80.7048 L 72.4556,80.8274 L 72.07,80.9589 L 71.7107,81.0962 L 71.3661,81.2393 L 71.0448,81.3883 L 70.7468,81.546 L 70.4723,81.7067 L 70.221,81.8673 L 69.9932,82.0367 L 69.7917,82.2091 L 69.6164,82.3843 L 69.4674,82.5625 L 69.3477,82.7436 L 69.2513,82.9247 L 69.1812,83.1087 L 69.1432,83.2927 L 69.1286,83.4797 L 69.1286,83.4797 L 69.1432,83.6666 L 69.1812,83.8477 L 69.2513,84.0347 L 69.3477,84.2158 L 69.4674,84.3969 L 69.6164,84.5751 L 69.7917,84.7503 L 69.9932,84.9227 L 70.221,85.0892 L 70.4723,85.2527 L 70.7468,85.4134 L 71.0448,85.5711 L 71.3661,85.7201 L 71.7107,85.8632 L 72.07,86.0005 L 72.4556,86.1319 L 72.8587,86.2546 L 73.2793,86.3715 L 73.7145,86.4795 L 74.1673,86.5818 L 74.6317,86.6782 L 75.1137,86.7629 L 75.6073,86.8417 L 76.1097,86.9118 L 76.6209,86.9703 L 77.1438,87.0199 L 77.6695,87.0608 L 78.2041,87.0929 L 78.7415,87.1163 L 79.2819,87.1338 L 79.8252,87.1368 L 79.8252,87.1368 L 80.3656,87.1338 L 80.906,87.1163 L 81.4435,87.0929 L 81.978,87.0608 L 82.5038,87.0199 L 83.0266,86.9703 L 83.5407,86.9118 L 84.0402,86.8417 L 84.5339,86.7629 L 85.0158,86.6782 L 85.4802,86.5818 L 85.9359,86.4795 L 86.3711,86.3715 L 86.7918,86.2546 L 87.1919,86.1319 L 87.5775,86.0005 L 87.9397,85.8632 L 88.2815,85.7201 L 88.6057,85.5711 L 88.9007,85.4134 L 89.1753,85.2527 L 89.4265,85.0892 L 89.6543,84.9227 L 89.8559,84.7503 L 90.0311,84.5751 L 90.1801,84.3969 L 90.2999,84.2158 L 90.3963,84.0347 L 90.4664,83.8477 L 90.5073,83.6666 L 90.5219,83.4797z"/>
      <path style="fill: none; stroke-opacity: 1; stroke-width: 0.02; stroke: #494936" d="M 90.3963 83.4213 L 90.3817,83.2343 L 90.3437,83.0562 L 90.2765,82.875 L 90.183,82.6969 L 90.0574,82.5158 L 89.9055,82.3434 L 89.739,82.1682 L 89.5346,82.0046 L 89.3097,81.8381 L 89.0614,81.6745 L 88.7868,81.5197 L 88.4918,81.3649 L 88.1734,81.2189 L 87.8375,81.0728 L 87.4694,80.9414 L 87.0868,80.8128 L 86.6866,80.6902 L 86.2718,80.5762 L 85.8395,80.4711 L 85.3897,80.3688 L 84.9223,80.2783 L 84.4462,80.1936 L 83.9555,80.1147 L 83.4589,80.0475 L 82.9507,79.9891 L 82.4278,79.9424 L 81.905,79.8956 L 81.3733,79.8694 L 80.8417,79.846 L 80.2984,79.8314 L 79.761,79.8226 L 79.761,79.8226 L 79.2235,79.8314 L 78.686,79.846 L 78.1486,79.8694 L 77.6228,79.8956 L 77.097,79.9424 L 76.5771,79.9891 L 76.0659,80.0475 L 75.5664,80.1147 L 75.0786,80.1936 L 74.6025,80.2783 L 74.1352,80.3688 L 73.6853,80.4711 L 73.2559,80.5762 L 72.8353,80.6902 L 72.4322,80.8128 L 72.0525,80.9414 L 71.6903,81.0728 L 71.3544,81.2189 L 71.0331,81.3649 L 70.7351,81.5197 L 70.4664,81.6745 L 70.2181,81.8381 L 69.9874,82.0046 L 69.7887,82.1682 L 69.6164,82.3434 L 69.4674,82.5158 L 69.3448,82.6969 L 69.2484,82.875 L 69.1812,83.0562 L 69.1432,83.2343 L 69.1286,83.4213 L 69.1286,83.4213 L 69.1432,83.6024 L 69.1812,83.7806 L 69.2484,83.9646 L 69.3448,84.1428 L 69.4674,84.3209 L 69.6164,84.4962 L 69.7887,84.6685 L 69.9874,84.835 L 70.2181,84.9986 L 70.4664,85.1651 L 70.7351,85.3228 L 71.0331,85.4718 L 71.3544,85.6208 L 71.6903,85.7639 L 72.0525,85.8983 L 72.4322,86.0268 L 72.8353,86.1465 L 73.2559,86.2634 L 73.6853,86.3685 L 74.1352,86.4708 L 74.6025,86.5642 L 75.0786,86.646 L 75.5664,86.722 L 76.0659,86.7892 L 76.5771,86.8476 L 77.097,86.8972 L 77.6228,86.9411 L 78.1486,86.9703 L 78.686,86.9936 L 79.2235,87.0082 L 79.761,87.0141 L 79.761,87.0141 L 80.2984,87.0082 L 80.8417,86.9936 L 81.3733,86.9703 L 81.905,86.9411 L 82.4278,86.8972 L 82.9507,86.8476 L 83.4589,86.7892 L 83.9555,86.722 L 84.4462,86.646 L 84.9223,86.5642 L 85.3897,86.4708 L 85.8395,86.3685 L 86.2718,86.2634 L 86.6866,86.1465 L 87.0868,86.0268 L 87.4694,85.8983 L 87.8375,85.7639 L 88.1734,85.6208 L 88.4918,85.4718 L 88.7868,85.3228 L 89.0614,85.1651 L 89.3097,84.9986 L 89.5346,84.835 L 89.739,84.6685 L 89.9055,84.4962 L 90.0574,84.3209 L 90.183,84.1428 L 90.2765,83.9646 L 90.3437,83.7806 L 90.3817,83.6024 L 90.3963,83.4213"/>
      <path style="fill: #a5a585; fill-opacity: 1; stroke: none" fill-rule="evenodd" d="M 69.1286 75.8413 L 69.1286,83.544 L 90.3963,83.544 L 90.3963,75.8413 L 69.1286,75.8413z"/>
      <path style="fill: #c9c9b6; fill-opacity: 1; stroke: none" fill-rule="evenodd" d="M 90.5219 75.7771 L 90.5073,75.5872 L 90.4664,75.4032 L 90.3963,75.2221 L 90.2999,75.041 L 90.1801,74.857 L 90.0311,74.6788 L 89.8559,74.5006 L 89.6543,74.3341 L 89.4265,74.1676 L 89.1753,73.9982 L 88.9007,73.8434 L 88.6057,73.6856 L 88.2815,73.5338 L 87.9397,73.3935 L 87.5775,73.2563 L 87.1919,73.1219 L 86.7918,72.9992 L 86.3711,72.8853 L 85.9359,72.7743 L 85.4802,72.6721 L 85.0158,72.5786 L 84.5339,72.4939 L 84.0402,72.415 L 83.5407,72.3449 L 83.0266,72.2865 L 82.5038,72.2368 L 81.978,72.1959 L 81.4435,72.1638 L 80.906,72.1375 L 80.3656,72.1229 L 79.8252,72.12 L 79.8252,72.12 L 79.2819,72.1229 L 78.7415,72.1375 L 78.2041,72.1638 L 77.6695,72.1959 L 77.1438,72.2368 L 76.6209,72.2865 L 76.1097,72.3449 L 75.6073,72.415 L 75.1137,72.4939 L 74.6317,72.5786 L 74.1673,72.6721 L 73.7145,72.7743 L 73.2793,72.8853 L 72.8587,72.9992 L 72.4556,73.1219 L 72.07,73.2563 L 71.7107,73.3935 L 71.3661,73.5338 L 71.0448,73.6856 L 70.7468,73.8434 L 70.4723,73.9982 L 70.221,74.1676 L 69.9932,74.3341 L 69.7917,74.5006 L 69.6164,74.6788 L 69.4674,74.857 L 69.3477,75.041 L 69.2513,75.2221 L 69.1812,75.4032 L 69.1432,75.5872 L 69.1286,75.7771 L 69.1286,75.7771 L 69.1432,75.9611 L 69.1812,76.148 L 69.2513,76.3262 L 69.3477,76.5132 L 69.4674,76.6913 L 69.6164,76.8724 L 69.7917,77.0477 L 69.9932,77.2171 L 70.221,77.3865 L 70.4723,77.5501 L 70.7468,77.7108 L 71.0448,77.8656 L 71.3661,78.0145 L 71.7107,78.1577 L 72.07,78.2979 L 72.4556,78.4264 L 72.8587,78.552 L 73.2793,78.6688 L 73.7145,78.7769 L 74.1673,78.8791 L 74.6317,78.9755 L 75.1137,79.0573 L 75.6073,79.1391 L 76.1097,79.2063 L 76.6209,79.2647 L 77.1438,79.3173 L 77.6695,79.3553 L 78.2041,79.3903 L 78.7415,79.4137 L 79.2819,79.4283 L 79.8252,79.4341 L 79.8252,79.4341 L 80.3656,79.4283 L 80.906,79.4137 L 81.4435,79.3903 L 81.978,79.3553 L 82.5038,79.3173 L 83.0266,79.2647 L 83.5407,79.2063 L 84.0402,79.1391 L 84.5339,79.0573 L 85.0158,78.9755 L 85.4802,78.8791 L 85.9359,78.7769 L 86.3711,78.6688 L 86.7918,78.552 L 87.1919,78.4264 L 87.5775,78.2979 L 87.9397,78.1577 L 88.2815,78.0145 L 88.6057,77.8656 L 88.9007,77.7108 L 89.1753,77.5501 L 89.4265,77.3865 L 89.6543,77.2171 L 89.8559,77.0477 L 90.0311,76.8724 L 90.1801,76.6913 L 90.2999,76.5132 L 90.3963,76.3262 L 90.4664,76.148 L 90.5073,75.9611 L 90.5219,75.7771z"/>
      <path style="fill: none; stroke-opacity: 1; stroke-width: 0.02; stroke: #494936" d="M 90.3963 75.7186 L 90.3817,75.5317 L 90.3437,75.3535 L 90.2765,75.1753 L 90.183,74.9942 L 90.0574,74.8102 L 89.9055,74.6379 L 89.739,74.4714 L 89.5346,74.2991 L 89.3097,74.1355 L 89.0614,73.969 L 88.7868,73.8171 L 88.4918,73.6623 L 88.1734,73.5133 L 87.8375,73.376 L 87.4694,73.2387 L 87.0868,73.1131 L 86.6866,72.9905 L 86.2718,72.8736 L 85.8395,72.7655 L 85.3897,72.6662 L 84.9223,72.5757 L 84.4462,72.491 L 83.9555,72.415 L 83.4589,72.3449 L 82.9507,72.2865 L 82.4278,72.2368 L 81.905,72.1959 L 81.3733,72.1638 L 81.1952,72.1551 L 78.3268,72.1551 L 78.1486,72.1638 L 77.6228,72.1959 L 77.097,72.2368 L 76.5771,72.2865 L 76.0659,72.3449 L 75.5664,72.415 L 75.0786,72.491 L 74.6025,72.5757 L 74.1352,72.6662 L 73.6853,72.7655 L 73.2559,72.8736 L 72.8353,72.9905 L 72.4322,73.1131 L 72.0525,73.2387 L 71.6903,73.376 L 71.3544,73.5133 L 71.0331,73.6623 L 70.7351,73.8171 L 70.4664,73.969 L 70.2181,74.1355 L 69.9874,74.2991 L 69.7887,74.4714 L 69.6164,74.6379 L 69.4674,74.8102 L 69.3448,74.9942 L 69.2484,75.1753 L 69.1812,75.3535 L 69.1432,75.5317 L 69.1286,75.7186 L 69.1286,75.7186 L 69.1432,75.8968 L 69.1812,76.0808 L 69.2484,76.262 L 69.3448,76.4401 L 69.4674,76.6183 L 69.6164,76.7936 L 69.7887,76.963 L 69.9874,77.1353 L 70.2181,77.2989 L 70.4664,77.4625 L 70.7351,77.6202 L 71.0331,77.7692 L 71.3544,77.9152 L 71.6903,78.0613 L 72.0525,78.1956 L 72.4322,78.3212 L 72.8353,78.441 L 73.2559,78.5578 L 73.6853,78.663 L 74.1352,78.7652 L 74.6025,78.8616 L 75.0786,78.9376 L 75.5664,79.0194 L 76.0659,79.0836 L 76.5771,79.145 L 77.097,79.1975 L 77.6228,79.2384 L 78.1486,79.2706 L 78.686,79.291 L 79.2235,79.3027 L 79.761,79.3115 L 79.761,79.3115 L 80.2984,79.3027 L 80.8417,79.291 L 81.3733,79.2706 L 81.905,79.2384 L 82.4278,79.1975 L 82.9507,79.145 L 83.4589,79.0836 L 83.9555,79.0194 L 84.4462,78.9376 L 84.9223,78.8616 L 85.3897,78.7652 L 85.8395,78.663 L 86.2718,78.5578 L 86.6866,78.441 L 87.0868,78.3212 L 87.4694,78.1956 L 87.8375,78.0613 L 88.1734,77.9152 L 88.4918,77.7692 L 88.7868,77.6202 L 89.0614,77.4625 L 89.3097,77.2989 L 89.5346,77.1353 L 89.739,76.963 L 89.9055,76.7936 L 90.0574,76.6183 L 90.183,76.4401 L 90.2765,76.262 L 90.3437,76.0808 L 90.3817,75.8968 L 90.3963,75.7186"/>
      <path style="fill: none; stroke-opacity: 1; stroke-width: 0.02; stroke: #000000" d="M 69.1286 75.7186 L 69.1286,83.4154"/>
      <path style="fill: none; stroke-opacity: 1; stroke-width: 0.02; stroke: #000000" d="M 90.3963 75.7186 L 90.3963,83.4154"/>
    </g>
    <text font-size="12.8" style="fill: #000000; fill-opacity: 1; stroke: none;text-anchor:start;font-family:sans-serif;font-style:normal;font-weight:normal" x="131.015" y="17.8751">
      <tspan x="131.015" y="17.8751"></tspan>
    </text>
    <text font-size="12.8" style="fill: #000000; fill-opacity: 1; stroke: none;text-anchor:start;font-family:sans-serif;font-style:normal;font-weight:normal" x="289.524" y="71.6922">
      <tspan x="289.524" y="71.6922"></tspan>
    </text>
    <text font-size="12.8" style="fill: #000000; fill-opacity: 1; stroke: none;text-anchor:start;font-family:sans-serif;font-style:normal;font-weight:normal" x="221.388" y="235.94">
      <tspan x="221.388" y="235.94"></tspan>
    </text>
    <text font-size="6.77333" style="fill: #000000; fill-opacity: 1; stroke: none;text-anchor:start;font-family:sans-serif;font-style:normal;font-weight:normal" x="20.0806" y="50.3444">
      <tspan x="20.0806" y="50.3444">sr3-examples/empty-amqp-pump</tspan>
      <tspan x="20.0806" y="58.8111">/sample/groceries</tspan>
    </text>
    <text font-size="12.8" style="fill: #000000; fill-opacity: 1; stroke: none;text-anchor:start;font-family:sans-serif;font-style:normal;font-weight:normal" x="43.2554" y="214.282">
      <tspan x="43.2554" y="214.282"></tspan>
    </text>
    <text font-size="6.77333" style="fill: #000000; fill-opacity: 1; stroke: none;text-anchor:start;font-family:sans-serif;font-style:normal;font-weight:normal" x="89.8302" y="226.358">
      <tspan x="89.8302" y="226.358">$HOME/hungry</tspan>
    </text>
    <g>
      <path style="fill: #a5a585; fill-opacity: 1; stroke: none" fill-rule="evenodd" d="M 121.794 243.228 L 121.78,243.041 L 121.739,242.857 L 121.669,242.673 L 121.572,242.492 L 121.453,242.311 L 121.304,242.132 L 121.128,241.957 L 120.927,241.785 L 120.699,241.615 L 120.448,241.455 L 120.173,241.294 L 119.878,241.136 L 119.554,240.987 L 119.212,240.844 L 118.85,240.707 L 118.465,240.575 L 118.064,240.453 L 117.644,240.336 L 117.209,240.228 L 116.753,240.126 L 116.288,240.029 L 115.806,239.945 L 115.313,239.863 L 114.813,239.796 L 114.299,239.737 L 113.776,239.687 L 113.251,239.644 L 112.716,239.614 L 112.179,239.588 L 111.638,239.571 L 111.098,239.571 L 111.098,239.571 L 110.555,239.571 L 110.014,239.588 L 109.477,239.614 L 108.942,239.644 L 108.416,239.687 L 107.894,239.737 L 107.382,239.796 L 106.88,239.863 L 106.386,239.945 L 105.904,240.029 L 105.44,240.126 L 104.987,240.228 L 104.552,240.336 L 104.131,240.453 L 103.728,240.575 L 103.343,240.707 L 102.983,240.844 L 102.639,240.987 L 102.317,241.136 L 102.019,241.294 L 101.745,241.455 L 101.494,241.615 L 101.266,241.785 L 101.064,241.957 L 100.889,242.132 L 100.74,242.311 L 100.62,242.492 L 100.524,242.673 L 100.454,242.857 L 100.416,243.041 L 100.401,243.228 L 100.401,243.228 L 100.416,243.415 L 100.454,243.596 L 100.524,243.783 L 100.62,243.964 L 100.74,244.145 L 100.889,244.323 L 101.064,244.498 L 101.266,244.671 L 101.494,244.837 L 101.745,245.001 L 102.019,245.161 L 102.317,245.319 L 102.639,245.468 L 102.983,245.611 L 103.343,245.748 L 103.728,245.88 L 104.131,246.003 L 104.552,246.119 L 104.987,246.228 L 105.44,246.33 L 105.904,246.426 L 106.386,246.511 L 106.88,246.59 L 107.382,246.66 L 107.894,246.718 L 108.416,246.768 L 108.942,246.809 L 109.477,246.841 L 110.014,246.864 L 110.555,246.882 L 111.098,246.885 L 111.098,246.885 L 111.638,246.882 L 112.179,246.864 L 112.716,246.841 L 113.251,246.809 L 113.776,246.768 L 114.299,246.718 L 114.813,246.66 L 115.313,246.59 L 115.806,246.511 L 116.288,246.426 L 116.753,246.33 L 117.209,246.228 L 117.644,246.119 L 118.064,246.003 L 118.465,245.88 L 118.85,245.748 L 119.212,245.611 L 119.554,245.468 L 119.878,245.319 L 120.173,245.161 L 120.448,245.001 L 120.699,244.837 L 120.927,244.671 L 121.128,244.498 L 121.304,244.323 L 121.453,244.145 L 121.572,243.964 L 121.669,243.783 L 121.739,243.596 L 121.78,243.415 L 121.794,243.228z"/>
      <path style="fill: none; stroke-opacity: 1; stroke-width: 0.02; stroke: #494936" d="M 121.669 243.169 L 121.654,242.982 L 121.616,242.804 L 121.549,242.623 L 121.456,242.445 L 121.33,242.264 L 121.178,242.091 L 121.012,241.916 L 120.807,241.753 L 120.582,241.586 L 120.334,241.423 L 120.059,241.268 L 119.764,241.113 L 119.446,240.967 L 119.11,240.821 L 118.742,240.689 L 118.359,240.561 L 117.959,240.438 L 117.544,240.324 L 117.112,240.219 L 116.662,240.117 L 116.195,240.026 L 115.719,239.942 L 115.228,239.863 L 114.732,239.796 L 114.223,239.737 L 113.7,239.69 L 113.178,239.644 L 112.646,239.617 L 112.114,239.594 L 111.571,239.579 L 111.034,239.571 L 111.034,239.571 L 110.496,239.579 L 109.959,239.594 L 109.421,239.617 L 108.895,239.644 L 108.37,239.69 L 107.85,239.737 L 107.339,239.796 L 106.839,239.863 L 106.351,239.942 L 105.875,240.026 L 105.408,240.117 L 104.958,240.219 L 104.529,240.324 L 104.108,240.438 L 103.705,240.561 L 103.325,240.689 L 102.963,240.821 L 102.627,240.967 L 102.306,241.113 L 102.008,241.268 L 101.739,241.423 L 101.491,241.586 L 101.26,241.753 L 101.061,241.916 L 100.889,242.091 L 100.74,242.264 L 100.617,242.445 L 100.521,242.623 L 100.454,242.804 L 100.416,242.982 L 100.401,243.169 L 100.401,243.169 L 100.416,243.35 L 100.454,243.529 L 100.521,243.713 L 100.617,243.891 L 100.74,244.069 L 100.889,244.244 L 101.061,244.417 L 101.26,244.583 L 101.491,244.747 L 101.739,244.913 L 102.008,245.071 L 102.306,245.22 L 102.627,245.369 L 102.963,245.512 L 103.325,245.646 L 103.705,245.775 L 104.108,245.895 L 104.529,246.011 L 104.958,246.117 L 105.408,246.219 L 105.875,246.312 L 106.351,246.394 L 106.839,246.47 L 107.339,246.537 L 107.85,246.596 L 108.37,246.645 L 108.895,246.689 L 109.421,246.718 L 109.959,246.742 L 110.496,246.756 L 111.034,246.762 L 111.034,246.762 L 111.571,246.756 L 112.114,246.742 L 112.646,246.718 L 113.178,246.689 L 113.7,246.645 L 114.223,246.596 L 114.732,246.537 L 115.228,246.47 L 115.719,246.394 L 116.195,246.312 L 116.662,246.219 L 117.112,246.117 L 117.544,246.011 L 117.959,245.895 L 118.359,245.775 L 118.742,245.646 L 119.11,245.512 L 119.446,245.369 L 119.764,245.22 L 120.059,245.071 L 120.334,244.913 L 120.582,244.747 L 120.807,244.583 L 121.012,244.417 L 121.178,244.244 L 121.33,244.069 L 121.456,243.891 L 121.549,243.713 L 121.616,243.529 L 121.654,243.35 L 121.669,243.169"/>
      <path style="fill: #a5a585; fill-opacity: 1; stroke: none" fill-rule="evenodd" d="M 100.401 235.589 L 100.401,243.292 L 121.669,243.292 L 121.669,235.589 L 100.401,235.589z"/>
      <path style="fill: #c9c9b6; fill-opacity: 1; stroke: none" fill-rule="evenodd" d="M 121.794 235.525 L 121.78,235.335 L 121.739,235.151 L 121.669,234.97 L 121.572,234.789 L 121.453,234.605 L 121.304,234.427 L 121.128,234.249 L 120.927,234.082 L 120.699,233.916 L 120.448,233.746 L 120.173,233.591 L 119.878,233.434 L 119.554,233.282 L 119.212,233.142 L 118.85,233.004 L 118.465,232.87 L 118.064,232.747 L 117.644,232.633 L 117.209,232.522 L 116.753,232.42 L 116.288,232.327 L 115.806,232.242 L 115.313,232.163 L 114.813,232.093 L 114.299,232.034 L 113.776,231.985 L 113.251,231.944 L 112.716,231.912 L 112.179,231.886 L 111.638,231.871 L 111.098,231.868 L 111.098,231.868 L 110.555,231.871 L 110.014,231.886 L 109.477,231.912 L 108.942,231.944 L 108.416,231.985 L 107.894,232.034 L 107.382,232.093 L 106.88,232.163 L 106.386,232.242 L 105.904,232.327 L 105.44,232.42 L 104.987,232.522 L 104.552,232.633 L 104.131,232.747 L 103.728,232.87 L 103.343,233.004 L 102.983,233.142 L 102.639,233.282 L 102.317,233.434 L 102.019,233.591 L 101.745,233.746 L 101.494,233.916 L 101.266,234.082 L 101.064,234.249 L 100.889,234.427 L 100.74,234.605 L 100.62,234.789 L 100.524,234.97 L 100.454,235.151 L 100.416,235.335 L 100.401,235.525 L 100.401,235.525 L 100.416,235.709 L 100.454,235.896 L 100.524,236.074 L 100.62,236.261 L 100.74,236.439 L 100.889,236.62 L 101.064,236.796 L 101.266,236.965 L 101.494,237.135 L 101.745,237.298 L 102.019,237.459 L 102.317,237.614 L 102.639,237.763 L 102.983,237.906 L 103.343,238.046 L 103.728,238.174 L 104.131,238.3 L 104.552,238.417 L 104.987,238.525 L 105.44,238.627 L 105.904,238.724 L 106.386,238.805 L 106.88,238.887 L 107.382,238.954 L 107.894,239.013 L 108.416,239.065 L 108.942,239.103 L 109.477,239.138 L 110.014,239.162 L 110.555,239.176 L 111.098,239.182 L 111.098,239.182 L 111.638,239.176 L 112.179,239.162 L 112.716,239.138 L 113.251,239.103 L 113.776,239.065 L 114.299,239.013 L 114.813,238.954 L 115.313,238.887 L 115.806,238.805 L 116.288,238.724 L 116.753,238.627 L 117.209,238.525 L 117.644,238.417 L 118.064,238.3 L 118.465,238.174 L 118.85,238.046 L 119.212,237.906 L 119.554,237.763 L 119.878,237.614 L 120.173,237.459 L 120.448,237.298 L 120.699,237.135 L 120.927,236.965 L 121.128,236.796 L 121.304,236.62 L 121.453,236.439 L 121.572,236.261 L 121.669,236.074 L 121.739,235.896 L 121.78,235.709 L 121.794,235.525z"/>
      <path style="fill: none; stroke-opacity: 1; stroke-width: 0.02; stroke: #494936" d="M 121.669 235.467 L 121.654,235.28 L 121.616,235.102 L 121.549,234.923 L 121.456,234.742 L 121.33,234.558 L 121.178,234.386 L 121.012,234.219 L 120.807,234.047 L 120.582,233.883 L 120.334,233.717 L 120.059,233.565 L 119.764,233.41 L 119.446,233.261 L 119.11,233.124 L 118.742,232.987 L 118.359,232.861 L 117.959,232.738 L 117.544,232.622 L 117.112,232.514 L 116.662,232.414 L 116.195,232.324 L 115.719,232.239 L 115.228,232.163 L 114.732,232.093 L 114.223,232.034 L 113.7,231.985 L 113.178,231.944 L 112.646,231.912 L 112.468,231.903 L 109.599,231.903 L 109.421,231.912 L 108.895,231.944 L 108.37,231.985 L 107.85,232.034 L 107.339,232.093 L 106.839,232.163 L 106.351,232.239 L 105.875,232.324 L 105.408,232.414 L 104.958,232.514 L 104.529,232.622 L 104.108,232.738 L 103.705,232.861 L 103.325,232.987 L 102.963,233.124 L 102.627,233.261 L 102.306,233.41 L 102.008,233.565 L 101.739,233.717 L 101.491,233.883 L 101.26,234.047 L 101.061,234.219 L 100.889,234.386 L 100.74,234.558 L 100.617,234.742 L 100.521,234.923 L 100.454,235.102 L 100.416,235.28 L 100.401,235.467 L 100.401,235.467 L 100.416,235.645 L 100.454,235.829 L 100.521,236.01 L 100.617,236.188 L 100.74,236.366 L 100.889,236.542 L 101.061,236.711 L 101.26,236.883 L 101.491,237.047 L 101.739,237.21 L 102.008,237.368 L 102.306,237.517 L 102.627,237.663 L 102.963,237.809 L 103.325,237.944 L 103.705,238.069 L 104.108,238.189 L 104.529,238.306 L 104.958,238.411 L 105.408,238.513 L 105.875,238.61 L 106.351,238.686 L 106.839,238.767 L 107.339,238.832 L 107.85,238.893 L 108.37,238.946 L 108.895,238.986 L 109.421,239.019 L 109.959,239.039 L 110.496,239.051 L 111.034,239.059 L 111.034,239.059 L 111.571,239.051 L 112.114,239.039 L 112.646,239.019 L 113.178,238.986 L 113.7,238.946 L 114.223,238.893 L 114.732,238.832 L 115.228,238.767 L 115.719,238.686 L 116.195,238.61 L 116.662,238.513 L 117.112,238.411 L 117.544,238.306 L 117.959,238.189 L 118.359,238.069 L 118.742,237.944 L 119.11,237.809 L 119.446,237.663 L 119.764,237.517 L 120.059,237.368 L 120.334,237.21 L 120.582,237.047 L 120.807,236.883 L 121.012,236.711 L 121.178,236.542 L 121.33,236.366 L 121.456,236.188 L 121.549,236.01 L 121.616,235.829 L 121.654,235.645 L 121.669,235.467"/>
      <path style="fill: none; stroke-opacity: 1; stroke-width: 0.02; stroke: #000000" d="M 100.401 235.467 L 100.401,243.163"/>
      <path style="fill: none; stroke-opacity: 1; stroke-width: 0.02; stroke: #000000" d="M 121.669 235.467 L 121.669,243.163"/>
    </g>
    <text font-size="12.8" style="fill: #000000; fill-opacity: 1; stroke: none;text-anchor:start;font-family:sans-serif;font-style:normal;font-weight:normal" x="120.659" y="219.688">
      <tspan x="120.659" y="219.688"></tspan>
    </text>
    <text font-size="12.8" style="fill: #000000; fill-opacity: 1; stroke: none;text-anchor:start;font-family:sans-serif;font-style:normal;font-weight:normal" x="174.755" y="110.282">
      <tspan x="174.755" y="110.282"></tspan>
    </text>
    <rect style="fill: #e5e5e5; fill-opacity: 1; stroke-opacity: 1; stroke-width: 0.2; stroke-linejoin: round; stroke: #000000" x="155.378" y="227.014" width="158" height="29" rx="2" ry="2"/>
    <ellipse style="fill: #ffffff; fill-opacity: 1; stroke-opacity: 1; stroke-width: 0.2; stroke-linejoin: round; stroke: #000000" cx="237.327" cy="238.11" rx="16.0455" ry="7.7618"/>
    <text font-size="6.77333" style="fill: #000000; fill-opacity: 1; stroke: none;text-anchor:start;font-family:sans-serif;font-style:normal;font-weight:normal" x="277.878" y="243.276">
      <tspan x="277.878" y="243.276">subscribe</tspan>
    </text>
    <text font-size="12.8" style="fill: #000000; fill-opacity: 1; stroke: none;text-anchor:start;font-family:sans-serif;font-style:normal;font-weight:normal" x="175.616" y="248.502">
      <tspan x="175.616" y="248.502"></tspan>
    </text>
    <text font-size="6.77333" style="fill: #000000; fill-opacity: 1; stroke: none;text-anchor:start;font-family:sans-serif;font-style:normal;font-weight:normal" x="224.942" y="240.304">
      <tspan x="224.942" y="240.304">hungry</tspan>
    </text>
    <text font-size="12.8" style="fill: #000000; fill-opacity: 1; stroke: none;text-anchor:start;font-family:sans-serif;font-style:normal;font-weight:normal" x="241.048" y="202.096">
      <tspan x="241.048" y="202.096"></tspan>
    </text>
    <text font-size="12.8" style="fill: #000000; fill-opacity: 1; stroke: none;text-anchor:start;font-family:sans-serif;font-style:normal;font-weight:normal" x="234.378" y="241.514">
      <tspan x="234.378" y="241.514"></tspan>
    </text>
    <text font-size="12.8" style="fill: #000000; fill-opacity: 1; stroke: none;text-anchor:start;font-family:sans-serif;font-style:normal;font-weight:normal" x="202.374" y="255.872">
      <tspan x="202.374" y="255.872"></tspan>
    </text>
    <text font-size="12.8" style="fill: #000000; fill-opacity: 1; stroke: none;text-anchor:start;font-family:sans-serif;font-style:normal;font-weight:normal" x="237.79" y="240.522">
      <tspan x="237.79" y="240.522"></tspan>
    </text>
    <text font-size="12.8" style="fill: #000000; fill-opacity: 1; stroke: none;text-anchor:start;font-family:sans-serif;font-style:normal;font-weight:normal" x="286.56" y="242.204">
      <tspan x="286.56" y="242.204"></tspan>
    </text>
    <text font-size="12.8" style="fill: #000000; fill-opacity: 1; stroke: none;text-anchor:start;font-family:sans-serif;font-style:normal;font-weight:normal" x="284.504" y="242.282">
      <tspan x="284.504" y="242.282"></tspan>
    </text>
    <text font-size="12.8" style="fill: #000000; fill-opacity: 1; stroke: none;text-anchor:start;font-family:sans-serif;font-style:normal;font-weight:normal" x="243.254" y="241.282">
      <tspan x="243.254" y="241.282"></tspan>
    </text>
    <text font-size="12.8" style="fill: #000000; fill-opacity: 1; stroke: none;text-anchor:start;font-family:sans-serif;font-style:normal;font-weight:normal" x="77.5054" y="156.969">
      <tspan x="77.5054" y="156.969"></tspan>
    </text>
  </g>
  <g id="Spare">
    <g>
      <line style="fill: none; stroke-opacity: 1; stroke-width: 2; stroke-linejoin: round; stroke: #000000" x1="42.086" y1="244.346" x2="56.569" y2="280.403"/>
      <polygon style="fill: #000000; fill-opacity: 1; stroke-opacity: 1; stroke-width: 2; stroke: #000000" fill-rule="evenodd" points="59.3644,287.363 50.9974,279.947 56.569,280.403 60.2769,276.22 "/>
    </g>
  </g>
  <g id="102_b_DaisyChain">
    <text font-size="12.8" style="fill: #000000; fill-opacity: 1; stroke: none;text-anchor:start;font-family:sans-serif;font-style:normal;font-weight:normal" x="224.426" y="168.203">
      <tspan x="224.426" y="168.203"></tspan>
    </text>
    <rect style="fill: #e5e5e5; fill-opacity: 1; stroke-opacity: 1; stroke-width: 0.2; stroke-linejoin: round; stroke: #000000" x="158.415" y="159.278" width="158" height="29" rx="2" ry="2"/>
    <ellipse style="fill: #ffffff; fill-opacity: 1; stroke-opacity: 1; stroke-width: 0.2; stroke-linejoin: round; stroke: #000000" cx="244.614" cy="170.873" rx="20.1398" ry="7.7618"/>
    <text font-size="6.77333" style="fill: #000000; fill-opacity: 1; stroke: none;text-anchor:start;font-family:sans-serif;font-style:normal;font-weight:normal" x="280.916" y="175.539">
      <tspan x="280.916" y="175.539">sarra</tspan>
    </text>
    <text font-size="12.8" style="fill: #000000; fill-opacity: 1; stroke: none;text-anchor:start;font-family:sans-serif;font-style:normal;font-weight:normal" x="178.653" y="180.764">
      <tspan x="178.653" y="180.764"></tspan>
    </text>
    <text font-size="6.77333" style="fill: #000000; fill-opacity: 1; stroke: none;text-anchor:start;font-family:sans-serif;font-style:normal;font-weight:normal" x="227.978" y="172.567">
      <tspan x="227.978" y="172.567">web_feed</tspan>
    </text>
    <text font-size="12.8" style="fill: #000000; fill-opacity: 1; stroke: none;text-anchor:start;font-family:sans-serif;font-style:normal;font-weight:normal" x="237.415" y="173.778">
      <tspan x="237.415" y="173.778"></tspan>
    </text>
    <text font-size="12.8" style="fill: #000000; fill-opacity: 1; stroke: none;text-anchor:start;font-family:sans-serif;font-style:normal;font-weight:normal" x="205.41" y="188.135">
      <tspan x="205.41" y="188.135"></tspan>
    </text>
    <text font-size="12.8" style="fill: #000000; fill-opacity: 1; stroke: none;text-anchor:start;font-family:sans-serif;font-style:normal;font-weight:normal" x="240.826" y="172.785">
      <tspan x="240.826" y="172.785"></tspan>
    </text>
    <text font-size="12.8" style="fill: #000000; fill-opacity: 1; stroke: none;text-anchor:start;font-family:sans-serif;font-style:normal;font-weight:normal" x="289.598" y="174.467">
      <tspan x="289.598" y="174.467"></tspan>
    </text>
    <text font-size="12.8" style="fill: #000000; fill-opacity: 1; stroke: none;text-anchor:start;font-family:sans-serif;font-style:normal;font-weight:normal" x="287.542" y="174.544">
      <tspan x="287.542" y="174.544"></tspan>
    </text>
    <text font-size="12.8" style="fill: #000000; fill-opacity: 1; stroke: none;text-anchor:start;font-family:sans-serif;font-style:normal;font-weight:normal" x="246.292" y="173.544">
      <tspan x="246.292" y="173.544"></tspan>
    </text>
    <text font-size="12.8" style="fill: #000000; fill-opacity: 1; stroke: none;text-anchor:start;font-family:sans-serif;font-style:normal;font-weight:normal" x="294.254" y="173.782">
      <tspan x="294.254" y="173.782"></tspan>
    </text>
    <g>
      <path style="fill: #a5a585; fill-opacity: 1; stroke: none" fill-rule="evenodd" d="M 133.965 141.347 L 133.951,141.16 L 133.91,140.976 L 133.84,140.792 L 133.743,140.611 L 133.624,140.43 L 133.475,140.252 L 133.299,140.076 L 133.098,139.904 L 132.87,139.735 L 132.619,139.574 L 132.344,139.413 L 132.049,139.256 L 131.725,139.107 L 131.383,138.964 L 131.021,138.826 L 130.635,138.695 L 130.235,138.572 L 129.815,138.455 L 129.379,138.347 L 128.924,138.245 L 128.459,138.149 L 127.977,138.064 L 127.484,137.982 L 126.984,137.915 L 126.47,137.857 L 125.947,137.807 L 125.421,137.763 L 124.887,137.734 L 124.349,137.708 L 123.809,137.69 L 123.269,137.69 L 123.269,137.69 L 122.725,137.69 L 122.185,137.708 L 121.647,137.734 L 121.113,137.763 L 120.587,137.807 L 120.064,137.857 L 119.553,137.915 L 119.051,137.982 L 118.557,138.064 L 118.075,138.149 L 117.611,138.245 L 117.158,138.347 L 116.723,138.455 L 116.302,138.572 L 115.899,138.695 L 115.513,138.826 L 115.154,138.964 L 114.809,139.107 L 114.488,139.256 L 114.19,139.413 L 113.916,139.574 L 113.664,139.735 L 113.437,139.904 L 113.235,140.076 L 113.06,140.252 L 112.911,140.43 L 112.791,140.611 L 112.695,140.792 L 112.625,140.976 L 112.587,141.16 L 112.572,141.347 L 112.572,141.347 L 112.587,141.534 L 112.625,141.715 L 112.695,141.902 L 112.791,142.083 L 112.911,142.264 L 113.06,142.442 L 113.235,142.618 L 113.437,142.79 L 113.664,142.957 L 113.916,143.12 L 114.19,143.281 L 114.488,143.439 L 114.809,143.587 L 115.154,143.731 L 115.513,143.868 L 115.899,143.999 L 116.302,144.122 L 116.723,144.239 L 117.158,144.347 L 117.611,144.449 L 118.075,144.546 L 118.557,144.63 L 119.051,144.709 L 119.553,144.779 L 120.064,144.838 L 120.587,144.887 L 121.113,144.928 L 121.647,144.96 L 122.185,144.984 L 122.725,145.001 L 123.269,145.004 L 123.269,145.004 L 123.809,145.001 L 124.349,144.984 L 124.887,144.96 L 125.421,144.928 L 125.947,144.887 L 126.47,144.838 L 126.984,144.779 L 127.484,144.709 L 127.977,144.63 L 128.459,144.546 L 128.924,144.449 L 129.379,144.347 L 129.815,144.239 L 130.235,144.122 L 130.635,143.999 L 131.021,143.868 L 131.383,143.731 L 131.725,143.587 L 132.049,143.439 L 132.344,143.281 L 132.619,143.12 L 132.87,142.957 L 133.098,142.79 L 133.299,142.618 L 133.475,142.442 L 133.624,142.264 L 133.743,142.083 L 133.84,141.902 L 133.91,141.715 L 133.951,141.534 L 133.965,141.347z"/>
      <path style="fill: none; stroke-opacity: 1; stroke-width: 0.02; stroke: #494936" d="M 133.84 141.289 L 133.825,141.102 L 133.787,140.924 L 133.72,140.742 L 133.626,140.564 L 133.501,140.383 L 133.349,140.211 L 133.182,140.036 L 132.978,139.872 L 132.753,139.706 L 132.505,139.542 L 132.23,139.387 L 131.935,139.232 L 131.617,139.086 L 131.281,138.94 L 130.913,138.809 L 130.53,138.68 L 130.13,138.558 L 129.715,138.444 L 129.283,138.338 L 128.833,138.236 L 128.366,138.146 L 127.89,138.061 L 127.399,137.982 L 126.902,137.915 L 126.394,137.857 L 125.871,137.81 L 125.348,137.763 L 124.817,137.737 L 124.285,137.713 L 123.742,137.699 L 123.204,137.69 L 123.204,137.69 L 122.667,137.699 L 122.129,137.713 L 121.592,137.737 L 121.066,137.763 L 120.54,137.81 L 120.02,137.857 L 119.509,137.915 L 119.01,137.982 L 118.522,138.061 L 118.046,138.146 L 117.579,138.236 L 117.129,138.338 L 116.699,138.444 L 116.279,138.558 L 115.876,138.68 L 115.496,138.809 L 115.134,138.94 L 114.798,139.086 L 114.476,139.232 L 114.179,139.387 L 113.91,139.542 L 113.662,139.706 L 113.431,139.872 L 113.232,140.036 L 113.06,140.211 L 112.911,140.383 L 112.788,140.564 L 112.692,140.742 L 112.625,140.924 L 112.587,141.102 L 112.572,141.289 L 112.572,141.289 L 112.587,141.47 L 112.625,141.648 L 112.692,141.832 L 112.788,142.01 L 112.911,142.188 L 113.06,142.364 L 113.232,142.536 L 113.431,142.702 L 113.662,142.866 L 113.91,143.032 L 114.179,143.19 L 114.476,143.339 L 114.798,143.488 L 115.134,143.631 L 115.496,143.766 L 115.876,143.894 L 116.279,144.014 L 116.699,144.131 L 117.129,144.236 L 117.579,144.338 L 118.046,144.432 L 118.522,144.513 L 119.01,144.589 L 119.509,144.657 L 120.02,144.715 L 120.54,144.765 L 121.066,144.808 L 121.592,144.838 L 122.129,144.861 L 122.667,144.876 L 123.204,144.881 L 123.204,144.881 L 123.742,144.876 L 124.285,144.861 L 124.817,144.838 L 125.348,144.808 L 125.871,144.765 L 126.394,144.715 L 126.902,144.657 L 127.399,144.589 L 127.89,144.513 L 128.366,144.432 L 128.833,144.338 L 129.283,144.236 L 129.715,144.131 L 130.13,144.014 L 130.53,143.894 L 130.913,143.766 L 131.281,143.631 L 131.617,143.488 L 131.935,143.339 L 132.23,143.19 L 132.505,143.032 L 132.753,142.866 L 132.978,142.702 L 133.182,142.536 L 133.349,142.364 L 133.501,142.188 L 133.626,142.01 L 133.72,141.832 L 133.787,141.648 L 133.825,141.47 L 133.84,141.289"/>
      <path style="fill: #a5a585; fill-opacity: 1; stroke: none" fill-rule="evenodd" d="M 112.572 133.709 L 112.572,141.411 L 133.84,141.411 L 133.84,133.709 L 112.572,133.709z"/>
      <path style="fill: #c9c9b6; fill-opacity: 1; stroke: none" fill-rule="evenodd" d="M 133.965 133.644 L 133.951,133.455 L 133.91,133.271 L 133.84,133.089 L 133.743,132.908 L 133.624,132.724 L 133.475,132.546 L 133.299,132.368 L 133.098,132.202 L 132.87,132.035 L 132.619,131.866 L 132.344,131.711 L 132.049,131.553 L 131.725,131.401 L 131.383,131.261 L 131.021,131.124 L 130.635,130.989 L 130.235,130.867 L 129.815,130.753 L 129.379,130.642 L 128.924,130.539 L 128.459,130.446 L 127.977,130.361 L 127.484,130.282 L 126.984,130.212 L 126.47,130.154 L 125.947,130.104 L 125.421,130.063 L 124.887,130.031 L 124.349,130.005 L 123.809,129.99 L 123.269,129.987 L 123.269,129.987 L 122.725,129.99 L 122.185,130.005 L 121.647,130.031 L 121.113,130.063 L 120.587,130.104 L 120.064,130.154 L 119.553,130.212 L 119.051,130.282 L 118.557,130.361 L 118.075,130.446 L 117.611,130.539 L 117.158,130.642 L 116.723,130.753 L 116.302,130.867 L 115.899,130.989 L 115.513,131.124 L 115.154,131.261 L 114.809,131.401 L 114.488,131.553 L 114.19,131.711 L 113.916,131.866 L 113.664,132.035 L 113.437,132.202 L 113.235,132.368 L 113.06,132.546 L 112.911,132.724 L 112.791,132.908 L 112.695,133.089 L 112.625,133.271 L 112.587,133.455 L 112.572,133.644 L 112.572,133.644 L 112.587,133.828 L 112.625,134.015 L 112.695,134.194 L 112.791,134.381 L 112.911,134.559 L 113.06,134.74 L 113.235,134.915 L 113.437,135.085 L 113.664,135.254 L 113.916,135.418 L 114.19,135.578 L 114.488,135.733 L 114.809,135.882 L 115.154,136.025 L 115.513,136.165 L 115.899,136.294 L 116.302,136.419 L 116.723,136.536 L 117.158,136.644 L 117.611,136.747 L 118.075,136.843 L 118.557,136.925 L 119.051,137.007 L 119.553,137.074 L 120.064,137.132 L 120.587,137.185 L 121.113,137.223 L 121.647,137.258 L 122.185,137.281 L 122.725,137.296 L 123.269,137.302 L 123.269,137.302 L 123.809,137.296 L 124.349,137.281 L 124.887,137.258 L 125.421,137.223 L 125.947,137.185 L 126.47,137.132 L 126.984,137.074 L 127.484,137.007 L 127.977,136.925 L 128.459,136.843 L 128.924,136.747 L 129.379,136.644 L 129.815,136.536 L 130.235,136.419 L 130.635,136.294 L 131.021,136.165 L 131.383,136.025 L 131.725,135.882 L 132.049,135.733 L 132.344,135.578 L 132.619,135.418 L 132.87,135.254 L 133.098,135.085 L 133.299,134.915 L 133.475,134.74 L 133.624,134.559 L 133.743,134.381 L 133.84,134.194 L 133.91,134.015 L 133.951,133.828 L 133.965,133.644z"/>
      <path style="fill: none; stroke-opacity: 1; stroke-width: 0.02; stroke: #494936" d="M 133.84 133.586 L 133.825,133.399 L 133.787,133.221 L 133.72,133.043 L 133.626,132.862 L 133.501,132.678 L 133.349,132.505 L 133.182,132.339 L 132.978,132.166 L 132.753,132.003 L 132.505,131.836 L 132.23,131.684 L 131.935,131.53 L 131.617,131.381 L 131.281,131.243 L 130.913,131.106 L 130.53,130.981 L 130.13,130.858 L 129.715,130.741 L 129.283,130.633 L 128.833,130.534 L 128.366,130.443 L 127.89,130.358 L 127.399,130.282 L 126.902,130.212 L 126.394,130.154 L 125.871,130.104 L 125.348,130.063 L 124.817,130.031 L 124.639,130.022 L 121.77,130.022 L 121.592,130.031 L 121.066,130.063 L 120.54,130.104 L 120.02,130.154 L 119.509,130.212 L 119.01,130.282 L 118.522,130.358 L 118.046,130.443 L 117.579,130.534 L 117.129,130.633 L 116.699,130.741 L 116.279,130.858 L 115.876,130.981 L 115.496,131.106 L 115.134,131.243 L 114.798,131.381 L 114.476,131.53 L 114.179,131.684 L 113.91,131.836 L 113.662,132.003 L 113.431,132.166 L 113.232,132.339 L 113.06,132.505 L 112.911,132.678 L 112.788,132.862 L 112.692,133.043 L 112.625,133.221 L 112.587,133.399 L 112.572,133.586 L 112.572,133.586 L 112.587,133.764 L 112.625,133.948 L 112.692,134.129 L 112.788,134.308 L 112.911,134.486 L 113.06,134.661 L 113.232,134.83 L 113.431,135.003 L 113.662,135.166 L 113.91,135.33 L 114.179,135.488 L 114.476,135.637 L 114.798,135.783 L 115.134,135.929 L 115.496,136.063 L 115.876,136.189 L 116.279,136.308 L 116.699,136.425 L 117.129,136.53 L 117.579,136.633 L 118.046,136.729 L 118.522,136.805 L 119.01,136.887 L 119.509,136.951 L 120.02,137.012 L 120.54,137.065 L 121.066,137.106 L 121.592,137.138 L 122.129,137.158 L 122.667,137.17 L 123.204,137.179 L 123.204,137.179 L 123.742,137.17 L 124.285,137.158 L 124.817,137.138 L 125.348,137.106 L 125.871,137.065 L 126.394,137.012 L 126.902,136.951 L 127.399,136.887 L 127.89,136.805 L 128.366,136.729 L 128.833,136.633 L 129.283,136.53 L 129.715,136.425 L 130.13,136.308 L 130.53,136.189 L 130.913,136.063 L 131.281,135.929 L 131.617,135.783 L 131.935,135.637 L 132.23,135.488 L 132.505,135.33 L 132.753,135.166 L 132.978,135.003 L 133.182,134.83 L 133.349,134.661 L 133.501,134.486 L 133.626,134.308 L 133.72,134.129 L 133.787,133.948 L 133.825,133.764 L 133.84,133.586"/>
      <path style="fill: none; stroke-opacity: 1; stroke-width: 0.02; stroke: #000000" d="M 112.572 133.586 L 112.572,141.283"/>
      <path style="fill: none; stroke-opacity: 1; stroke-width: 0.02; stroke: #000000" d="M 133.84 133.586 L 133.84,141.283"/>
    </g>
    <text font-size="6.77333" style="fill: #000000; fill-opacity: 1; stroke: none;text-anchor:start;font-family:sans-serif;font-style:normal;font-weight:normal" x="103.618" y="121.871">
      <tspan x="103.618" y="121.871">$HOME/public_html</tspan>
    </text>
    <text font-size="12.8" style="fill: #000000; fill-opacity: 1; stroke: none;text-anchor:start;font-family:sans-serif;font-style:normal;font-weight:normal" x="132.255" y="122.532">
      <tspan x="132.255" y="122.532"></tspan>
    </text>
    <g>
      <path style="fill: #a5a585; fill-opacity: 1; stroke: none" fill-rule="evenodd" d="M 47.6781 140.335 L 47.6635,140.148 L 47.6226,139.964 L 47.5525,139.78 L 47.4561,139.599 L 47.3363,139.418 L 47.1873,139.239 L 47.0121,139.064 L 46.8105,138.892 L 46.5827,138.722 L 46.3315,138.562 L 46.0569,138.401 L 45.7619,138.243 L 45.4377,138.094 L 45.0959,137.951 L 44.7337,137.814 L 44.3481,137.682 L 43.948,137.56 L 43.5273,137.443 L 43.0921,137.335 L 42.6364,137.233 L 42.172,137.136 L 41.6901,137.052 L 41.1964,136.97 L 40.6969,136.903 L 40.1828,136.844 L 39.66,136.794 L 39.1342,136.751 L 38.5997,136.721 L 38.0622,136.695 L 37.5218,136.678 L 36.9814,136.678 L 36.9814,136.678 L 36.4381,136.678 L 35.8977,136.695 L 35.3603,136.721 L 34.8257,136.751 L 34.3,136.794 L 33.7771,136.844 L 33.2659,136.903 L 32.7635,136.97 L 32.2699,137.052 L 31.7879,137.136 L 31.3235,137.233 L 30.8707,137.335 L 30.4355,137.443 L 30.0149,137.56 L 29.6118,137.682 L 29.2262,137.814 L 28.8669,137.951 L 28.5223,138.094 L 28.201,138.243 L 27.903,138.401 L 27.6285,138.562 L 27.3772,138.722 L 27.1494,138.892 L 26.9479,139.064 L 26.7726,139.239 L 26.6236,139.418 L 26.5039,139.599 L 26.4075,139.78 L 26.3374,139.964 L 26.2994,140.148 L 26.2848,140.335 L 26.2848,140.335 L 26.2994,140.522 L 26.3374,140.703 L 26.4075,140.89 L 26.5039,141.071 L 26.6236,141.252 L 26.7726,141.43 L 26.9479,141.605 L 27.1494,141.778 L 27.3772,141.944 L 27.6285,142.108 L 27.903,142.268 L 28.201,142.426 L 28.5223,142.575 L 28.8669,142.718 L 29.2262,142.855 L 29.6118,142.987 L 30.0149,143.11 L 30.4355,143.226 L 30.8707,143.335 L 31.3235,143.437 L 31.7879,143.533 L 32.2699,143.618 L 32.7635,143.697 L 33.2659,143.767 L 33.7771,143.825 L 34.3,143.875 L 34.8257,143.916 L 35.3603,143.948 L 35.8977,143.971 L 36.4381,143.989 L 36.9814,143.992 L 36.9814,143.992 L 37.5218,143.989 L 38.0622,143.971 L 38.5997,143.948 L 39.1342,143.916 L 39.66,143.875 L 40.1828,143.825 L 40.6969,143.767 L 41.1964,143.697 L 41.6901,143.618 L 42.172,143.533 L 42.6364,143.437 L 43.0921,143.335 L 43.5273,143.226 L 43.948,143.11 L 44.3481,142.987 L 44.7337,142.855 L 45.0959,142.718 L 45.4377,142.575 L 45.7619,142.426 L 46.0569,142.268 L 46.3315,142.108 L 46.5827,141.944 L 46.8105,141.778 L 47.0121,141.605 L 47.1873,141.43 L 47.3363,141.252 L 47.4561,141.071 L 47.5525,140.89 L 47.6226,140.703 L 47.6635,140.522 L 47.6781,140.335z"/>
      <path style="fill: none; stroke-opacity: 1; stroke-width: 0.02; stroke: #494936" d="M 47.5525 140.276 L 47.5379,140.089 L 47.4999,139.911 L 47.4327,139.73 L 47.3392,139.552 L 47.2136,139.371 L 47.0617,139.198 L 46.8952,139.023 L 46.6908,138.86 L 46.4659,138.693 L 46.2176,138.53 L 45.943,138.375 L 45.648,138.22 L 45.3296,138.074 L 44.9937,137.928 L 44.6256,137.796 L 44.243,137.668 L 43.8428,137.545 L 43.428,137.431 L 42.9957,137.326 L 42.5459,137.224 L 42.0785,137.133 L 41.6024,137.049 L 41.1117,136.97 L 40.6151,136.903 L 40.1069,136.844 L 39.584,136.797 L 39.0612,136.751 L 38.5295,136.724 L 37.9979,136.701 L 37.4546,136.686 L 36.9172,136.678 L 36.9172,136.678 L 36.3797,136.686 L 35.8422,136.701 L 35.3048,136.724 L 34.779,136.751 L 34.2532,136.797 L 33.7333,136.844 L 33.2221,136.903 L 32.7226,136.97 L 32.2348,137.049 L 31.7587,137.133 L 31.2914,137.224 L 30.8415,137.326 L 30.4121,137.431 L 29.9915,137.545 L 29.5884,137.668 L 29.2087,137.796 L 28.8465,137.928 L 28.5106,138.074 L 28.1893,138.22 L 27.8913,138.375 L 27.6226,138.53 L 27.3743,138.693 L 27.1436,138.86 L 26.9449,139.023 L 26.7726,139.198 L 26.6236,139.371 L 26.501,139.552 L 26.4046,139.73 L 26.3374,139.911 L 26.2994,140.089 L 26.2848,140.276 L 26.2848,140.276 L 26.2994,140.457 L 26.3374,140.636 L 26.4046,140.82 L 26.501,140.998 L 26.6236,141.176 L 26.7726,141.351 L 26.9449,141.524 L 27.1436,141.69 L 27.3743,141.854 L 27.6226,142.02 L 27.8913,142.178 L 28.1893,142.327 L 28.5106,142.476 L 28.8465,142.619 L 29.2087,142.753 L 29.5884,142.882 L 29.9915,143.002 L 30.4121,143.118 L 30.8415,143.224 L 31.2914,143.326 L 31.7587,143.419 L 32.2348,143.501 L 32.7226,143.577 L 33.2221,143.644 L 33.7333,143.703 L 34.2532,143.752 L 34.779,143.796 L 35.3048,143.825 L 35.8422,143.849 L 36.3797,143.863 L 36.9172,143.869 L 36.9172,143.869 L 37.4546,143.863 L 37.9979,143.849 L 38.5295,143.825 L 39.0612,143.796 L 39.584,143.752 L 40.1069,143.703 L 40.6151,143.644 L 41.1117,143.577 L 41.6024,143.501 L 42.0785,143.419 L 42.5459,143.326 L 42.9957,143.224 L 43.428,143.118 L 43.8428,143.002 L 44.243,142.882 L 44.6256,142.753 L 44.9937,142.619 L 45.3296,142.476 L 45.648,142.327 L 45.943,142.178 L 46.2176,142.02 L 46.4659,141.854 L 46.6908,141.69 L 46.8952,141.524 L 47.0617,141.351 L 47.2136,141.176 L 47.3392,140.998 L 47.4327,140.82 L 47.4999,140.636 L 47.5379,140.457 L 47.5525,140.276"/>
      <path style="fill: #a5a585; fill-opacity: 1; stroke: none" fill-rule="evenodd" d="M 26.2848 132.696 L 26.2848,140.399 L 47.5525,140.399 L 47.5525,132.696 L 26.2848,132.696z"/>
      <path style="fill: #c9c9b6; fill-opacity: 1; stroke: none" fill-rule="evenodd" d="M 47.6781 132.632 L 47.6635,132.442 L 47.6226,132.258 L 47.5525,132.077 L 47.4561,131.896 L 47.3363,131.712 L 47.1873,131.534 L 47.0121,131.356 L 46.8105,131.189 L 46.5827,131.023 L 46.3315,130.853 L 46.0569,130.698 L 45.7619,130.541 L 45.4377,130.389 L 45.0959,130.249 L 44.7337,130.111 L 44.3481,129.977 L 43.948,129.854 L 43.5273,129.74 L 43.0921,129.629 L 42.6364,129.527 L 42.172,129.434 L 41.6901,129.349 L 41.1964,129.27 L 40.6969,129.2 L 40.1828,129.141 L 39.66,129.092 L 39.1342,129.051 L 38.5997,129.019 L 38.0622,128.993 L 37.5218,128.978 L 36.9814,128.975 L 36.9814,128.975 L 36.4381,128.978 L 35.8977,128.993 L 35.3603,129.019 L 34.8257,129.051 L 34.3,129.092 L 33.7771,129.141 L 33.2659,129.2 L 32.7635,129.27 L 32.2699,129.349 L 31.7879,129.434 L 31.3235,129.527 L 30.8707,129.629 L 30.4355,129.74 L 30.0149,129.854 L 29.6118,129.977 L 29.2262,130.111 L 28.8669,130.249 L 28.5223,130.389 L 28.201,130.541 L 27.903,130.698 L 27.6285,130.853 L 27.3772,131.023 L 27.1494,131.189 L 26.9479,131.356 L 26.7726,131.534 L 26.6236,131.712 L 26.5039,131.896 L 26.4075,132.077 L 26.3374,132.258 L 26.2994,132.442 L 26.2848,132.632 L 26.2848,132.632 L 26.2994,132.816 L 26.3374,133.003 L 26.4075,133.181 L 26.5039,133.368 L 26.6236,133.546 L 26.7726,133.727 L 26.9479,133.903 L 27.1494,134.072 L 27.3772,134.242 L 27.6285,134.405 L 27.903,134.566 L 28.201,134.721 L 28.5223,134.87 L 28.8669,135.013 L 29.2262,135.153 L 29.6118,135.281 L 30.0149,135.407 L 30.4355,135.524 L 30.8707,135.632 L 31.3235,135.734 L 31.7879,135.831 L 32.2699,135.912 L 32.7635,135.994 L 33.2659,136.061 L 33.7771,136.12 L 34.3,136.172 L 34.8257,136.21 L 35.3603,136.245 L 35.8977,136.269 L 36.4381,136.283 L 36.9814,136.289 L 36.9814,136.289 L 37.5218,136.283 L 38.0622,136.269 L 38.5997,136.245 L 39.1342,136.21 L 39.66,136.172 L 40.1828,136.12 L 40.6969,136.061 L 41.1964,135.994 L 41.6901,135.912 L 42.172,135.831 L 42.6364,135.734 L 43.0921,135.632 L 43.5273,135.524 L 43.948,135.407 L 44.3481,135.281 L 44.7337,135.153 L 45.0959,135.013 L 45.4377,134.87 L 45.7619,134.721 L 46.0569,134.566 L 46.3315,134.405 L 46.5827,134.242 L 46.8105,134.072 L 47.0121,133.903 L 47.1873,133.727 L 47.3363,133.546 L 47.4561,133.368 L 47.5525,133.181 L 47.6226,133.003 L 47.6635,132.816 L 47.6781,132.632z"/>
      <path style="fill: none; stroke-opacity: 1; stroke-width: 0.02; stroke: #494936" d="M 47.5525 132.574 L 47.5379,132.387 L 47.4999,132.209 L 47.4327,132.03 L 47.3392,131.849 L 47.2136,131.665 L 47.0617,131.493 L 46.8952,131.326 L 46.6908,131.154 L 46.4659,130.99 L 46.2176,130.824 L 45.943,130.672 L 45.648,130.517 L 45.3296,130.368 L 44.9937,130.231 L 44.6256,130.094 L 44.243,129.968 L 43.8428,129.845 L 43.428,129.729 L 42.9957,129.621 L 42.5459,129.521 L 42.0785,129.431 L 41.6024,129.346 L 41.1117,129.27 L 40.6151,129.2 L 40.1069,129.141 L 39.584,129.092 L 39.0612,129.051 L 38.5295,129.019 L 38.3514,129.01 L 35.483,129.01 L 35.3048,129.019 L 34.779,129.051 L 34.2532,129.092 L 33.7333,129.141 L 33.2221,129.2 L 32.7226,129.27 L 32.2348,129.346 L 31.7587,129.431 L 31.2914,129.521 L 30.8415,129.621 L 30.4121,129.729 L 29.9915,129.845 L 29.5884,129.968 L 29.2087,130.094 L 28.8465,130.231 L 28.5106,130.368 L 28.1893,130.517 L 27.8913,130.672 L 27.6226,130.824 L 27.3743,130.99 L 27.1436,131.154 L 26.9449,131.326 L 26.7726,131.493 L 26.6236,131.665 L 26.501,131.849 L 26.4046,132.03 L 26.3374,132.209 L 26.2994,132.387 L 26.2848,132.574 L 26.2848,132.574 L 26.2994,132.752 L 26.3374,132.936 L 26.4046,133.117 L 26.501,133.295 L 26.6236,133.473 L 26.7726,133.649 L 26.9449,133.818 L 27.1436,133.99 L 27.3743,134.154 L 27.6226,134.317 L 27.8913,134.475 L 28.1893,134.624 L 28.5106,134.77 L 28.8465,134.916 L 29.2087,135.051 L 29.5884,135.176 L 29.9915,135.296 L 30.4121,135.413 L 30.8415,135.518 L 31.2914,135.62 L 31.7587,135.717 L 32.2348,135.793 L 32.7226,135.874 L 33.2221,135.939 L 33.7333,136 L 34.2532,136.053 L 34.779,136.093 L 35.3048,136.126 L 35.8422,136.146 L 36.3797,136.158 L 36.9172,136.166 L 36.9172,136.166 L 37.4546,136.158 L 37.9979,136.146 L 38.5295,136.126 L 39.0612,136.093 L 39.584,136.053 L 40.1069,136 L 40.6151,135.939 L 41.1117,135.874 L 41.6024,135.793 L 42.0785,135.717 L 42.5459,135.62 L 42.9957,135.518 L 43.428,135.413 L 43.8428,135.296 L 44.243,135.176 L 44.6256,135.051 L 44.9937,134.916 L 45.3296,134.77 L 45.648,134.624 L 45.943,134.475 L 46.2176,134.317 L 46.4659,134.154 L 46.6908,133.99 L 46.8952,133.818 L 47.0617,133.649 L 47.2136,133.473 L 47.3392,133.295 L 47.4327,133.117 L 47.4999,132.936 L 47.5379,132.752 L 47.5525,132.574"/>
      <path style="fill: none; stroke-opacity: 1; stroke-width: 0.02; stroke: #000000" d="M 26.2848 132.574 L 26.2848,140.27"/>
      <path style="fill: none; stroke-opacity: 1; stroke-width: 0.02; stroke: #000000" d="M 47.5525 132.574 L 47.5525,140.27"/>
    </g>
    <text font-size="6.77333" style="fill: #000000; fill-opacity: 1; stroke: none;text-anchor:start;font-family:sans-serif;font-style:normal;font-weight:normal" x="13.4639" y="114.715">
      <tspan x="13.4639" y="114.715">/var/www/html</tspan>
      <tspan x="13.4639" y="123.182">/data</tspan>
    </text>
    <text font-size="6.77333" style="fill: #000000; fill-opacity: 1; stroke: none;text-anchor:start;font-family:sans-serif;font-style:normal;font-weight:normal" x="19.6764" y="220.452">
      <tspan x="19.6764" y="220.452">$HOME/web_hungry</tspan>
    </text>
    <text font-size="12.8" style="fill: #000000; fill-opacity: 1; stroke: none;text-anchor:start;font-family:sans-serif;font-style:normal;font-weight:normal" x="21.3934" y="232.64">
      <tspan x="21.3934" y="232.64"></tspan>
    </text>
    <g>
      <path style="fill: #a5a585; fill-opacity: 1; stroke: none" fill-rule="evenodd" d="M 49.3905 238.572 L 49.3759,238.385 L 49.335,238.201 L 49.2649,238.017 L 49.1685,237.836 L 49.0487,237.655 L 48.8997,237.476 L 48.7245,237.301 L 48.5229,237.129 L 48.2951,236.959 L 48.0439,236.799 L 47.7693,236.638 L 47.4743,236.48 L 47.1501,236.331 L 46.8083,236.188 L 46.4461,236.051 L 46.0605,235.919 L 45.6604,235.797 L 45.2397,235.68 L 44.8045,235.572 L 44.3488,235.47 L 43.8844,235.373 L 43.4025,235.289 L 42.9088,235.207 L 42.4093,235.14 L 41.8952,235.081 L 41.3724,235.031 L 40.8466,234.988 L 40.3121,234.958 L 39.7746,234.932 L 39.2342,234.915 L 38.6938,234.915 L 38.6938,234.915 L 38.1505,234.915 L 37.6101,234.932 L 37.0727,234.958 L 36.5381,234.988 L 36.0124,235.031 L 35.4895,235.081 L 34.9783,235.14 L 34.4759,235.207 L 33.9823,235.289 L 33.5003,235.373 L 33.0359,235.47 L 32.5831,235.572 L 32.1479,235.68 L 31.7273,235.797 L 31.3242,235.919 L 30.9386,236.051 L 30.5793,236.188 L 30.2347,236.331 L 29.9134,236.48 L 29.6154,236.638 L 29.3409,236.799 L 29.0896,236.959 L 28.8618,237.129 L 28.6603,237.301 L 28.485,237.476 L 28.336,237.655 L 28.2163,237.836 L 28.1199,238.017 L 28.0498,238.201 L 28.0118,238.385 L 27.9972,238.572 L 27.9972,238.572 L 28.0118,238.759 L 28.0498,238.94 L 28.1199,239.127 L 28.2163,239.308 L 28.336,239.489 L 28.485,239.667 L 28.6603,239.842 L 28.8618,240.015 L 29.0896,240.181 L 29.3409,240.345 L 29.6154,240.505 L 29.9134,240.663 L 30.2347,240.812 L 30.5793,240.955 L 30.9386,241.092 L 31.3242,241.224 L 31.7273,241.347 L 32.1479,241.463 L 32.5831,241.572 L 33.0359,241.674 L 33.5003,241.77 L 33.9823,241.855 L 34.4759,241.934 L 34.9783,242.004 L 35.4895,242.062 L 36.0124,242.112 L 36.5381,242.153 L 37.0727,242.185 L 37.6101,242.208 L 38.1505,242.226 L 38.6938,242.229 L 38.6938,242.229 L 39.2342,242.226 L 39.7746,242.208 L 40.3121,242.185 L 40.8466,242.153 L 41.3724,242.112 L 41.8952,242.062 L 42.4093,242.004 L 42.9088,241.934 L 43.4025,241.855 L 43.8844,241.77 L 44.3488,241.674 L 44.8045,241.572 L 45.2397,241.463 L 45.6604,241.347 L 46.0605,241.224 L 46.4461,241.092 L 46.8083,240.955 L 47.1501,240.812 L 47.4743,240.663 L 47.7693,240.505 L 48.0439,240.345 L 48.2951,240.181 L 48.5229,240.015 L 48.7245,239.842 L 48.8997,239.667 L 49.0487,239.489 L 49.1685,239.308 L 49.2649,239.127 L 49.335,238.94 L 49.3759,238.759 L 49.3905,238.572z"/>
      <path style="fill: none; stroke-opacity: 1; stroke-width: 0.02; stroke: #494936" d="M 49.2649 238.513 L 49.2503,238.326 L 49.2123,238.148 L 49.1451,237.967 L 49.0516,237.789 L 48.926,237.608 L 48.7741,237.435 L 48.6076,237.26 L 48.4032,237.097 L 48.1783,236.93 L 47.93,236.767 L 47.6554,236.612 L 47.3604,236.457 L 47.042,236.311 L 46.7061,236.165 L 46.338,236.033 L 45.9554,235.905 L 45.5552,235.782 L 45.1404,235.668 L 44.7081,235.563 L 44.2583,235.461 L 43.7909,235.37 L 43.3148,235.286 L 42.8241,235.207 L 42.3275,235.14 L 41.8193,235.081 L 41.2964,235.034 L 40.7736,234.988 L 40.2419,234.961 L 39.7103,234.938 L 39.167,234.923 L 38.6296,234.915 L 38.6296,234.915 L 38.0921,234.923 L 37.5546,234.938 L 37.0172,234.961 L 36.4914,234.988 L 35.9656,235.034 L 35.4457,235.081 L 34.9345,235.14 L 34.435,235.207 L 33.9472,235.286 L 33.4711,235.37 L 33.0038,235.461 L 32.5539,235.563 L 32.1245,235.668 L 31.7039,235.782 L 31.3008,235.905 L 30.9211,236.033 L 30.5589,236.165 L 30.223,236.311 L 29.9017,236.457 L 29.6037,236.612 L 29.335,236.767 L 29.0867,236.93 L 28.856,237.097 L 28.6573,237.26 L 28.485,237.435 L 28.336,237.608 L 28.2134,237.789 L 28.117,237.967 L 28.0498,238.148 L 28.0118,238.326 L 27.9972,238.513 L 27.9972,238.513 L 28.0118,238.694 L 28.0498,238.873 L 28.117,239.057 L 28.2134,239.235 L 28.336,239.413 L 28.485,239.588 L 28.6573,239.761 L 28.856,239.927 L 29.0867,240.091 L 29.335,240.257 L 29.6037,240.415 L 29.9017,240.564 L 30.223,240.713 L 30.5589,240.856 L 30.9211,240.99 L 31.3008,241.119 L 31.7039,241.239 L 32.1245,241.355 L 32.5539,241.461 L 33.0038,241.563 L 33.4711,241.656 L 33.9472,241.738 L 34.435,241.814 L 34.9345,241.881 L 35.4457,241.94 L 35.9656,241.989 L 36.4914,242.033 L 37.0172,242.062 L 37.5546,242.086 L 38.0921,242.1 L 38.6296,242.106 L 38.6296,242.106 L 39.167,242.1 L 39.7103,242.086 L 40.2419,242.062 L 40.7736,242.033 L 41.2964,241.989 L 41.8193,241.94 L 42.3275,241.881 L 42.8241,241.814 L 43.3148,241.738 L 43.7909,241.656 L 44.2583,241.563 L 44.7081,241.461 L 45.1404,241.355 L 45.5552,241.239 L 45.9554,241.119 L 46.338,240.99 L 46.7061,240.856 L 47.042,240.713 L 47.3604,240.564 L 47.6554,240.415 L 47.93,240.257 L 48.1783,240.091 L 48.4032,239.927 L 48.6076,239.761 L 48.7741,239.588 L 48.926,239.413 L 49.0516,239.235 L 49.1451,239.057 L 49.2123,238.873 L 49.2503,238.694 L 49.2649,238.513"/>
      <path style="fill: #a5a585; fill-opacity: 1; stroke: none" fill-rule="evenodd" d="M 27.9972 230.933 L 27.9972,238.636 L 49.2649,238.636 L 49.2649,230.933 L 27.9972,230.933z"/>
      <path style="fill: #c9c9b6; fill-opacity: 1; stroke: none" fill-rule="evenodd" d="M 49.3905 230.869 L 49.3759,230.679 L 49.335,230.495 L 49.2649,230.314 L 49.1685,230.133 L 49.0487,229.949 L 48.8997,229.771 L 48.7245,229.593 L 48.5229,229.426 L 48.2951,229.26 L 48.0439,229.09 L 47.7693,228.935 L 47.4743,228.778 L 47.1501,228.626 L 46.8083,228.486 L 46.4461,228.348 L 46.0605,228.214 L 45.6604,228.091 L 45.2397,227.977 L 44.8045,227.866 L 44.3488,227.764 L 43.8844,227.671 L 43.4025,227.586 L 42.9088,227.507 L 42.4093,227.437 L 41.8952,227.378 L 41.3724,227.329 L 40.8466,227.288 L 40.3121,227.256 L 39.7746,227.23 L 39.2342,227.215 L 38.6938,227.212 L 38.6938,227.212 L 38.1505,227.215 L 37.6101,227.23 L 37.0727,227.256 L 36.5381,227.288 L 36.0124,227.329 L 35.4895,227.378 L 34.9783,227.437 L 34.4759,227.507 L 33.9823,227.586 L 33.5003,227.671 L 33.0359,227.764 L 32.5831,227.866 L 32.1479,227.977 L 31.7273,228.091 L 31.3242,228.214 L 30.9386,228.348 L 30.5793,228.486 L 30.2347,228.626 L 29.9134,228.778 L 29.6154,228.935 L 29.3409,229.09 L 29.0896,229.26 L 28.8618,229.426 L 28.6603,229.593 L 28.485,229.771 L 28.336,229.949 L 28.2163,230.133 L 28.1199,230.314 L 28.0498,230.495 L 28.0118,230.679 L 27.9972,230.869 L 27.9972,230.869 L 28.0118,231.053 L 28.0498,231.24 L 28.1199,231.418 L 28.2163,231.605 L 28.336,231.783 L 28.485,231.964 L 28.6603,232.14 L 28.8618,232.309 L 29.0896,232.479 L 29.3409,232.642 L 29.6154,232.803 L 29.9134,232.958 L 30.2347,233.107 L 30.5793,233.25 L 30.9386,233.39 L 31.3242,233.518 L 31.7273,233.644 L 32.1479,233.761 L 32.5831,233.869 L 33.0359,233.971 L 33.5003,234.068 L 33.9823,234.149 L 34.4759,234.231 L 34.9783,234.298 L 35.4895,234.357 L 36.0124,234.409 L 36.5381,234.447 L 37.0727,234.482 L 37.6101,234.506 L 38.1505,234.52 L 38.6938,234.526 L 38.6938,234.526 L 39.2342,234.52 L 39.7746,234.506 L 40.3121,234.482 L 40.8466,234.447 L 41.3724,234.409 L 41.8952,234.357 L 42.4093,234.298 L 42.9088,234.231 L 43.4025,234.149 L 43.8844,234.068 L 44.3488,233.971 L 44.8045,233.869 L 45.2397,233.761 L 45.6604,233.644 L 46.0605,233.518 L 46.4461,233.39 L 46.8083,233.25 L 47.1501,233.107 L 47.4743,232.958 L 47.7693,232.803 L 48.0439,232.642 L 48.2951,232.479 L 48.5229,232.309 L 48.7245,232.14 L 48.8997,231.964 L 49.0487,231.783 L 49.1685,231.605 L 49.2649,231.418 L 49.335,231.24 L 49.3759,231.053 L 49.3905,230.869z"/>
      <path style="fill: none; stroke-opacity: 1; stroke-width: 0.02; stroke: #494936" d="M 49.2649 230.811 L 49.2503,230.624 L 49.2123,230.446 L 49.1451,230.267 L 49.0516,230.086 L 48.926,229.902 L 48.7741,229.73 L 48.6076,229.563 L 48.4032,229.391 L 48.1783,229.227 L 47.93,229.061 L 47.6554,228.909 L 47.3604,228.754 L 47.042,228.605 L 46.7061,228.468 L 46.338,228.331 L 45.9554,228.205 L 45.5552,228.082 L 45.1404,227.966 L 44.7081,227.858 L 44.2583,227.758 L 43.7909,227.668 L 43.3148,227.583 L 42.8241,227.507 L 42.3275,227.437 L 41.8193,227.378 L 41.2964,227.329 L 40.7736,227.288 L 40.2419,227.256 L 40.0638,227.247 L 37.1954,227.247 L 37.0172,227.256 L 36.4914,227.288 L 35.9656,227.329 L 35.4457,227.378 L 34.9345,227.437 L 34.435,227.507 L 33.9472,227.583 L 33.4711,227.668 L 33.0038,227.758 L 32.5539,227.858 L 32.1245,227.966 L 31.7039,228.082 L 31.3008,228.205 L 30.9211,228.331 L 30.5589,228.468 L 30.223,228.605 L 29.9017,228.754 L 29.6037,228.909 L 29.335,229.061 L 29.0867,229.227 L 28.856,229.391 L 28.6573,229.563 L 28.485,229.73 L 28.336,229.902 L 28.2134,230.086 L 28.117,230.267 L 28.0498,230.446 L 28.0118,230.624 L 27.9972,230.811 L 27.9972,230.811 L 28.0118,230.989 L 28.0498,231.173 L 28.117,231.354 L 28.2134,231.532 L 28.336,231.71 L 28.485,231.886 L 28.6573,232.055 L 28.856,232.227 L 29.0867,232.391 L 29.335,232.554 L 29.6037,232.712 L 29.9017,232.861 L 30.223,233.007 L 30.5589,233.153 L 30.9211,233.288 L 31.3008,233.413 L 31.7039,233.533 L 32.1245,233.65 L 32.5539,233.755 L 33.0038,233.857 L 33.4711,233.954 L 33.9472,234.03 L 34.435,234.111 L 34.9345,234.176 L 35.4457,234.237 L 35.9656,234.29 L 36.4914,234.33 L 37.0172,234.363 L 37.5546,234.383 L 38.0921,234.395 L 38.6296,234.403 L 38.6296,234.403 L 39.167,234.395 L 39.7103,234.383 L 40.2419,234.363 L 40.7736,234.33 L 41.2964,234.29 L 41.8193,234.237 L 42.3275,234.176 L 42.8241,234.111 L 43.3148,234.03 L 43.7909,233.954 L 44.2583,233.857 L 44.7081,233.755 L 45.1404,233.65 L 45.5552,233.533 L 45.9554,233.413 L 46.338,233.288 L 46.7061,233.153 L 47.042,233.007 L 47.3604,232.861 L 47.6554,232.712 L 47.93,232.554 L 48.1783,232.391 L 48.4032,232.227 L 48.6076,232.055 L 48.7741,231.886 L 48.926,231.71 L 49.0516,231.532 L 49.1451,231.354 L 49.2123,231.173 L 49.2503,230.989 L 49.2649,230.811"/>
      <path style="fill: none; stroke-opacity: 1; stroke-width: 0.02; stroke: #000000" d="M 27.9972 230.811 L 27.9972,238.507"/>
      <path style="fill: none; stroke-opacity: 1; stroke-width: 0.02; stroke: #000000" d="M 49.2649 230.811 L 49.2649,238.507"/>
    </g>
    <polygon style="fill: #ffffff; fill-opacity: 1; stroke-opacity: 1; stroke-width: 0.2; stroke: #000000" fill-rule="evenodd" points="209.172,201.47 148.086,201.36 177.298,222.24 "/>
    <text font-size="6.77333" style="fill: #000000; fill-opacity: 1; stroke: none;text-anchor:start;font-family:sans-serif;font-style:normal;font-weight:normal" x="163.263" y="211.008">
      <tspan x="163.263" y="211.008">xpublic</tspan>
    </text>
    <text font-size="12.8" style="fill: #000000; fill-opacity: 1; stroke: none;text-anchor:start;font-family:sans-serif;font-style:normal;font-weight:normal" x="144.755" y="218.282">
      <tspan x="144.755" y="218.282"></tspan>
    </text>
    <g>
      <line style="fill: none; stroke-opacity: 1; stroke-width: 2; stroke: #ffe9aa" x1="86.5552" y1="87" x2="107.295" y2="119.307"/>
      <polygon style="fill: #ffe9aa; fill-opacity: 1; stroke-opacity: 1; stroke-width: 2; stroke: #ffe9aa" fill-rule="evenodd" points="111.347,125.618 101.737,119.904 107.295,119.307 110.152,114.502 "/>
    </g>
    <g>
      <path style="fill: none; stroke-opacity: 1; stroke-width: 2; stroke: #0000ff" d="M 113.091,143.85 A 140.007,140.007 0 0 0 47.4012,218.532"/>
      <polygon style="fill: #0000ff; fill-opacity: 1; stroke-opacity: 1; stroke-width: 2; stroke: #0000ff" fill-rule="evenodd" points="44.9481,225.603 43.0039,214.593 47.0846,218.414 52.5896,217.441 "/>
    </g>
    <g>
      <line style="fill: none; stroke-opacity: 1; stroke-width: 1; stroke: #00ff00" x1="244.947" y1="85.6035" x2="264.087" y2="122.341"/>
      <polygon style="fill: #00ff00; fill-opacity: 1; stroke-opacity: 1; stroke-width: 1; stroke: #00ff00" fill-rule="evenodd" points="264.78,123.671 262.969,122.36 264.087,122.341 264.743,121.436 "/>
    </g>
    <g>
      <line style="fill: none; stroke-opacity: 1; stroke-width: 1; stroke: #00ff00" x1="268.048" y1="152.157" x2="255.47" y2="162.203"/>
      <polygon style="fill: #00ff00; fill-opacity: 1; stroke-opacity: 1; stroke-width: 1; stroke: #00ff00" fill-rule="evenodd" points="254.298,163.139 255.237,161.109 255.47,162.203 256.485,162.672 "/>
    </g>
    <g>
      <line style="fill: none; stroke-opacity: 1; stroke-width: 1; stroke: #00ff00" x1="231.646" y1="176.876" x2="181.005" y2="200.315"/>
      <polygon style="fill: #00ff00; fill-opacity: 1; stroke-opacity: 1; stroke-width: 1; stroke: #00ff00" fill-rule="evenodd" points="179.644,200.945 181.038,199.198 181.005,200.315 181.879,201.013 "/>
    </g>
    <g>
      <line style="fill: none; stroke-opacity: 1; stroke-width: 1; stroke: #00ff00" x1="187.399" y1="215.731" x2="223.101" y2="231.733"/>
      <polygon style="fill: #00ff00; fill-opacity: 1; stroke-opacity: 1; stroke-width: 1; stroke: #00ff00" fill-rule="evenodd" points="224.47,232.347 222.236,232.441 223.101,231.733 223.054,230.616 "/>
    </g>
    <text font-size="12.7998" style="fill: #000000; fill-opacity: 1; stroke: none;text-anchor:start;font-family:sans-serif;font-style:normal;font-weight:normal" x="117.017" y="24.25">
      <tspan x="117.017" y="24.25">Daisychain: Post, Sarra &amp; Sub</tspan>
    </text>
  </g>
</svg>
